<svg width="1251" height="393" viewBox="0 0 1251 393" fill="none" xmlns="http://www.w3.org/2000/svg">
<mask id="mask0_1827_538" style="mask-type:alpha" maskUnits="userSpaceOnUse" x="0" y="12" width="1250" height="361">
<rect y="12" width="1250" height="361" rx="10" fill="white"/>
</mask>
<g mask="url(#mask0_1827_538)">
<path d="M1170.61 315.85H907.856C905.597 315.846 903.432 314.947 901.835 313.35C900.238 311.753 899.339 309.588 899.335 307.33V-75.4796C899.343 -77.7356 900.244 -79.8969 901.84 -81.4908C903.437 -83.0847 905.6 -83.9816 907.856 -83.9855H1170.61C1172.86 -83.9816 1175.03 -83.0847 1176.62 -81.4908C1178.22 -79.8969 1179.12 -77.7356 1179.13 -75.4796V307.33C1179.12 309.588 1178.23 311.753 1176.63 313.35C1175.03 314.947 1172.87 315.846 1170.61 315.85ZM907.856 -83.622C906.781 -83.6296 905.715 -83.4248 904.72 -83.0192C903.724 -82.6136 902.819 -82.0153 902.056 -81.2586C901.292 -80.502 900.686 -79.6019 900.271 -78.6101C899.857 -77.6184 899.643 -76.5544 899.641 -75.4796V307.33C899.641 309.493 900.5 311.568 902.03 313.097C903.56 314.627 905.634 315.487 907.798 315.487H1170.61C1172.77 315.487 1174.85 314.627 1176.38 313.097C1177.91 311.568 1178.77 309.493 1178.77 307.33V-75.4796C1178.77 -77.6429 1177.91 -79.7177 1176.38 -81.2474C1174.85 -82.7771 1172.77 -83.6365 1170.61 -83.6365L907.856 -83.622Z" fill="#F0F0F0"/>
<path d="M867.551 315.85H604.74C602.482 315.846 600.317 314.947 598.72 313.35C597.123 311.753 596.224 309.588 596.22 307.33V-75.4796C596.224 -77.7381 597.123 -79.9031 598.72 -81.5002C600.317 -83.0972 602.482 -83.9962 604.74 -84H867.551C869.809 -83.9962 871.974 -83.0972 873.572 -81.5002C875.169 -79.9031 876.068 -77.7381 876.071 -75.4796V307.33C876.068 309.588 875.169 311.753 873.572 313.35C871.974 314.947 869.809 315.846 867.551 315.85ZM604.74 -83.622C602.58 -83.622 600.507 -82.7646 598.978 -81.238C597.448 -79.7114 596.587 -77.6404 596.583 -75.4796V307.33C596.583 309.493 597.443 311.568 598.973 313.097C600.502 314.627 602.577 315.487 604.74 315.487H867.551C872.058 315.487 875.708 311.837 876.769 306.53V-76.2793C876.172 -78.2947 874.965 -80.0756 873.314 -81.3773C871.663 -82.6791 869.65 -83.4378 867.551 -83.5493L604.74 -83.622Z" fill="#F0F0F0"/>
<path d="M647.982 370.564V370.433L622.683 293.836C622.655 293.758 622.644 293.675 622.649 293.593C622.654 293.51 622.675 293.429 622.712 293.354C622.748 293.28 622.799 293.214 622.862 293.159C622.924 293.105 622.997 293.063 623.075 293.037C623.154 293.012 623.236 293.003 623.318 293.01C623.4 293.017 623.479 293.04 623.552 293.078C623.625 293.115 623.69 293.167 623.743 293.23C623.796 293.293 623.836 293.366 623.861 293.444L649.102 370.055C649.11 370.118 649.11 370.181 649.102 370.244L647.982 370.564Z" fill="#6D201B"/>
<path d="M666.012 370.07C666.005 370.007 666.005 369.943 666.012 369.881L691.21 293.676C691.235 293.598 691.275 293.525 691.328 293.463C691.38 293.4 691.445 293.348 691.518 293.31C691.591 293.272 691.671 293.249 691.753 293.242C691.834 293.235 691.917 293.244 691.995 293.269C692.073 293.294 692.146 293.334 692.209 293.387C692.272 293.44 692.323 293.505 692.361 293.578C692.399 293.65 692.422 293.73 692.429 293.812C692.436 293.894 692.427 293.976 692.402 294.054L667.233 370.273C667.222 370.323 667.197 370.368 667.161 370.404L666.012 370.07Z" fill="#6D201B"/>
<path d="M657.07 369.444C657.063 369.386 657.063 369.328 657.07 369.27L655.471 278.831C655.469 278.738 655.485 278.646 655.52 278.56C655.554 278.473 655.605 278.395 655.67 278.328C655.735 278.262 655.812 278.209 655.898 278.173C655.984 278.137 656.076 278.119 656.169 278.119C656.351 278.119 656.526 278.19 656.657 278.318C656.787 278.446 656.863 278.619 656.866 278.802L658.466 369.255C658.473 369.323 658.473 369.391 658.466 369.459L657.07 369.444Z" fill="#6D201B"/>
<path d="M694.336 362.174H623.715C623.246 362.175 622.784 362.29 622.369 362.508C621.953 362.726 621.597 363.041 621.33 363.427C621.063 363.812 620.893 364.257 620.835 364.723C620.777 365.188 620.832 365.661 620.996 366.1L622.043 368.877L622.698 370.637L624.602 375.668L625.257 377.427L627.234 382.632L627.903 384.392L635.667 405.009H682.486L690.265 384.392L690.919 382.632L692.868 377.471L693.536 375.711L695.427 370.68L696.081 368.921L697.128 366.144C697.304 365.696 697.366 365.212 697.308 364.735C697.251 364.257 697.076 363.802 696.8 363.408C696.523 363.015 696.153 362.696 695.723 362.481C695.293 362.266 694.817 362.16 694.336 362.174Z" fill="#E6E6E6"/>
<path d="M960.723 181.341H914.82C913.616 181.341 912.639 182.317 912.639 183.522V193.889C912.639 195.093 913.616 196.07 914.82 196.07H960.723C961.928 196.07 962.904 195.093 962.904 193.889V183.522C962.904 182.317 961.928 181.341 960.723 181.341Z" fill="#F5F5F5"/>
<path d="M988.131 200.112H942.228C941.024 200.112 940.047 201.088 940.047 202.293V212.66C940.047 213.864 941.024 214.841 942.228 214.841H988.131C989.336 214.841 990.312 213.864 990.312 212.66V202.293C990.312 201.088 989.336 200.112 988.131 200.112Z" fill="#F5F5F5"/>
<path d="M836.842 72.2468H790.94C789.735 72.2468 788.759 73.2233 788.759 74.4278V84.7948C788.759 85.9994 789.735 86.9758 790.94 86.9758H836.842C838.047 86.9758 839.023 85.9994 839.023 84.7948V74.4278C839.023 73.2233 838.047 72.2468 836.842 72.2468Z" fill="#F5F5F5"/>
<path d="M864.25 91.018H818.348C817.143 91.018 816.167 91.9945 816.167 93.199V103.566C816.167 104.771 817.143 105.747 818.348 105.747H864.25C865.455 105.747 866.431 104.771 866.431 103.566V93.199C866.431 91.9945 865.455 91.018 864.25 91.018Z" fill="#F5F5F5"/>
<path d="M1151.97 -49.9328H1042.89V59.1463H1151.97V-49.9328Z" fill="#E6E6E6"/>
<path d="M1160.27 275.225L1067.51 280.576L1066.84 270.849H1160.56L1160.27 275.225Z" fill="#E6E6E6"/>
<path d="M1166.09 260.104H1061.3C1060.94 260.104 1060.66 260.39 1060.66 260.743V270.209C1060.66 270.562 1060.94 270.849 1061.3 270.849H1166.09C1166.44 270.849 1166.73 270.562 1166.73 270.209V260.743C1166.73 260.39 1166.44 260.104 1166.09 260.104Z" fill="#F5F5F5"/>
<path d="M1117.13 312.811C1117.13 313.489 1116.92 314.151 1116.55 314.714C1116.17 315.276 1115.63 315.714 1115 315.971C1114.37 316.229 1113.69 316.294 1113.02 316.16C1112.36 316.026 1111.75 315.698 1111.27 315.218C1110.79 314.737 1110.46 314.126 1110.33 313.461C1110.2 312.796 1110.27 312.106 1110.53 311.48C1110.79 310.854 1111.23 310.319 1111.79 309.943C1112.36 309.566 1113.02 309.365 1113.7 309.365C1114.15 309.365 1114.6 309.454 1115.02 309.628C1115.43 309.801 1115.81 310.055 1116.13 310.375C1116.45 310.696 1116.7 311.076 1116.87 311.494C1117.05 311.912 1117.13 312.359 1117.13 312.811Z" fill="#6D201B"/>
<path d="M1117.13 361.302C1117.13 361.981 1116.93 362.644 1116.55 363.208C1116.18 363.773 1115.64 364.213 1115.01 364.472C1114.39 364.732 1113.7 364.8 1113.03 364.668C1112.36 364.535 1111.75 364.208 1111.27 363.728C1110.79 363.249 1110.47 362.637 1110.33 361.971C1110.2 361.306 1110.27 360.616 1110.53 359.989C1110.79 359.362 1111.23 358.826 1111.79 358.449C1112.36 358.072 1113.02 357.871 1113.7 357.871C1114.61 357.871 1115.48 358.232 1116.13 358.876C1116.77 359.519 1117.13 360.392 1117.13 361.302Z" fill="#6D201B"/>
<path d="M1094.84 198.774C1094.84 198.774 1086.54 201.144 1077.39 189.279C1070.78 180.701 1059.07 162.409 1042.9 162.104C1042.9 162.104 1062.08 153.787 1079.01 162.249C1095.93 170.712 1104.96 192.624 1094.84 198.774Z" fill="#F0F0F0"/>
<path d="M1099.78 233.03C1099.73 233.028 1099.67 233.015 1099.62 232.99C1099.56 232.966 1099.51 232.931 1099.47 232.887C1099.44 232.844 1099.41 232.793 1099.39 232.737C1099.37 232.682 1099.36 232.623 1099.36 232.565C1099.59 224.356 1099 216.145 1097.62 208.051C1095.52 196.084 1090.57 180.294 1078.83 173.009C1078.74 172.944 1078.67 172.845 1078.64 172.732C1078.61 172.619 1078.63 172.5 1078.69 172.398C1078.75 172.302 1078.85 172.234 1078.97 172.21C1079.08 172.186 1079.2 172.206 1079.3 172.268C1085.06 176.098 1089.6 181.503 1092.38 187.84C1095.32 194.225 1097.36 200.981 1098.46 207.92C1099.86 216.081 1100.45 224.361 1100.21 232.638C1100.2 232.743 1100.15 232.841 1100.07 232.913C1099.99 232.986 1099.89 233.027 1099.78 233.03Z" fill="#6D201B"/>
<path d="M1101.12 172.66C1101.12 172.66 1109.53 170.697 1111.77 155.881C1113.38 145.165 1114.67 123.486 1128.69 115.358C1128.69 115.358 1107.9 117.423 1097.23 133.039C1086.55 148.655 1089.3 172.195 1101.12 172.66Z" fill="#F0F0F0"/>
<path d="M1112.68 233.99C1112.59 233.991 1112.5 233.964 1112.43 233.911C1112.36 233.859 1112.3 233.785 1112.27 233.699C1108.38 222.492 1105.18 211.056 1102.69 199.457C1100.47 189.567 1099.08 179.51 1098.52 169.389C1098.02 158.251 1099.14 149.033 1101.82 141.923C1101.86 141.815 1101.94 141.728 1102.04 141.679C1102.15 141.63 1102.26 141.623 1102.37 141.661C1102.43 141.68 1102.48 141.71 1102.52 141.75C1102.56 141.789 1102.6 141.836 1102.62 141.889C1102.65 141.942 1102.66 141.999 1102.66 142.057C1102.66 142.116 1102.65 142.173 1102.63 142.228C1096.66 158.047 1099.83 181.98 1103.54 199.268C1106.03 210.835 1109.24 222.236 1113.15 233.408C1113.18 233.516 1113.17 233.633 1113.12 233.736C1113.07 233.838 1112.99 233.918 1112.88 233.961C1112.82 233.993 1112.75 234.003 1112.68 233.99Z" fill="#6D201B"/>
<path d="M1115.78 179.916C1115.78 179.916 1124.33 181.079 1131.77 168.036C1137.11 158.614 1146.11 138.855 1162.06 136.266C1162.06 136.266 1141.91 130.741 1126.35 141.515C1110.79 152.29 1104.96 175.248 1115.84 179.916" fill="#F0F0F0"/>
<path d="M1117.13 233.99C1117.03 233.989 1116.93 233.954 1116.85 233.891C1116.77 233.828 1116.72 233.74 1116.69 233.641C1114.84 223.151 1113.87 212.524 1113.79 201.871C1113.64 192.776 1114.52 183.694 1116.42 174.797C1118.67 164.968 1122.36 157.102 1127.41 151.432C1127.49 151.352 1127.6 151.307 1127.72 151.307C1127.83 151.307 1127.94 151.352 1128.02 151.432C1128.06 151.472 1128.1 151.521 1128.12 151.575C1128.14 151.628 1128.15 151.686 1128.15 151.744C1128.15 151.803 1128.14 151.86 1128.12 151.914C1128.1 151.968 1128.06 152.016 1128.02 152.057C1116.81 164.663 1114.54 186.124 1114.63 201.9C1114.72 212.494 1115.69 223.063 1117.54 233.495C1117.55 233.552 1117.55 233.61 1117.54 233.667C1117.53 233.724 1117.51 233.778 1117.48 233.827C1117.45 233.876 1117.41 233.918 1117.36 233.951C1117.31 233.984 1117.26 234.007 1117.2 234.019L1117.13 233.99Z" fill="#6D201B"/>
<path d="M1130.51 199.85C1130.51 199.85 1138.65 202.685 1148.48 191.388C1155.59 183.216 1168.34 165.623 1184.48 166.262C1184.48 166.262 1165.82 156.841 1148.45 164.314C1131.07 171.788 1120.82 193.118 1130.51 199.85Z" fill="#F0F0F0"/>
<path d="M1122.57 233.99C1122.46 233.986 1122.35 233.941 1122.27 233.863C1122.19 233.785 1122.14 233.68 1122.13 233.568C1122.15 226.093 1123.08 218.649 1124.88 211.395C1126.49 204.606 1129.01 198.063 1132.35 191.94C1136.11 185.043 1141.28 179.014 1147.52 174.245C1147.56 174.211 1147.62 174.186 1147.67 174.171C1147.73 174.157 1147.79 174.154 1147.84 174.162C1147.9 174.17 1147.95 174.189 1148 174.219C1148.05 174.248 1148.09 174.286 1148.13 174.332C1148.17 174.377 1148.19 174.429 1148.21 174.485C1148.22 174.541 1148.23 174.599 1148.22 174.657C1148.21 174.714 1148.19 174.769 1148.16 174.818C1148.13 174.867 1148.09 174.91 1148.04 174.943C1134.55 185.121 1128.46 200.475 1125.74 211.598C1123.95 218.776 1123.05 226.143 1123.05 233.539C1123.05 233.598 1123.04 233.656 1123.02 233.71C1123 233.765 1122.97 233.815 1122.93 233.857C1122.88 233.899 1122.84 233.932 1122.78 233.955C1122.73 233.978 1122.67 233.99 1122.61 233.99H1122.57Z" fill="#6D201B"/>
<path d="M1148.97 244.168C1148.95 245.492 1148.75 246.808 1148.38 248.079C1147.56 250.905 1145.94 253.433 1143.71 255.36C1141.49 257.287 1138.76 258.53 1135.84 258.94C1121.02 260.947 1106 260.917 1091.19 258.853C1087.92 258.445 1084.87 256.995 1082.49 254.72C1080.11 252.445 1078.53 249.464 1077.97 246.218C1077.8 245.107 1077.76 243.98 1077.84 242.859C1078.16 239.006 1080.14 235.269 1084.01 231.634H1142.78C1147.11 235.676 1149.06 239.835 1148.97 244.168Z" fill="#6D201B"/>
<path d="M1013.4 104.54C1008.63 112.973 1003.56 120.956 998.077 128.924C995.838 132.166 993.526 135.394 991.054 138.578C990.501 139.305 989.949 140.032 989.382 140.73L987.826 142.766C986.779 144.031 985.703 145.296 984.555 146.575C982.661 148.727 980.61 150.734 978.419 152.58C976.685 154.066 974.72 155.259 972.603 156.114C972.127 156.291 971.641 156.441 971.149 156.564C970.565 156.712 969.972 156.824 969.375 156.899C968.909 156.899 968.444 156.986 967.921 156.986C967.397 156.986 967.121 156.986 966.714 156.986C965.446 156.884 964.193 156.645 962.977 156.274C961.285 155.715 959.654 154.99 958.106 154.107C956.754 153.351 955.547 152.58 954.399 151.781C950.243 148.787 946.33 145.471 942.694 141.864C936.311 135.313 930.839 127.933 926.424 119.924L930.786 113.366C934.406 116.172 938.405 119.182 942.098 121.901C945.791 124.62 949.222 127.383 952.93 129.956C956.482 132.328 960.188 134.46 964.024 136.339C964.722 136.688 965.405 137.023 966.031 137.299C967.129 136.131 968.168 134.908 969.142 133.635C970.422 131.992 971.716 130.247 972.995 128.444C975.54 124.838 978.055 121.043 980.527 117.219C985.485 109.571 990.371 101.618 995.198 93.9551L1013.4 104.54Z" fill="#FCC50C"/>
<path d="M921.146 115.358C921.146 115.358 917.947 112.566 915.097 110.298C912.247 108.03 917.554 107.899 920.026 109.149C922.035 110.176 923.894 111.472 925.551 113.002L921.146 115.358Z" fill="#FFC3BD"/>
<path opacity="0.2" d="M921.146 115.358C921.146 115.358 917.947 112.566 915.097 110.298C912.247 108.03 917.554 107.899 920.026 109.149C922.035 110.176 923.894 111.472 925.551 113.002L921.146 115.358Z" fill="black"/>
<path d="M926.467 119.865C926.467 119.865 921.974 120.403 915.228 120.709C908.481 121.014 904.177 114.66 900.819 112.828C897.46 110.996 905.413 109.789 908.089 112.406C910.764 115.024 918.267 112.697 921.175 111.767C924.083 110.836 929.055 111.025 930.727 113.308C930.829 115.562 929.055 120.549 926.467 119.865Z" fill="#FFC3BD"/>
<path d="M1028.09 213.867C1027.83 217.792 1028.38 229.861 1027.84 236.331C1026.84 248.675 1025.5 264.669 1024.44 280.707C1023.19 299.274 1020.32 317.057 1020.77 329.896C1021.91 363.018 1023.68 438.946 1023.68 438.946H1009.3C1009.3 438.946 992.435 364.341 989.28 330.754C986.634 302.924 988.044 231.198 988.481 213.867H1028.09Z" fill="#263238"/>
<path opacity="0.2" d="M1027.84 236.258C1026.84 248.603 1025.5 264.597 1024.44 280.634C1017.36 259.697 1023.93 228.072 1023.93 228.072L1027.84 236.258Z" fill="black"/>
<path d="M1042.9 332.862C1049.85 365.868 1075.5 437.855 1075.5 437.855L1089.78 436.241C1089.78 436.241 1079.38 362.291 1074.51 329.518C1070.15 299.929 1067.36 232.434 1066.36 212.325L1018.67 213.779C1020.19 231.038 1037.15 305.483 1042.9 332.847V332.862Z" fill="#263238"/>
<path d="M1069.73 215.568C1036 219.363 1003.82 216.775 986.372 213.867C987.244 205.244 992.639 100.687 994.834 94.6385C996.87 89.0261 1006.47 86.2926 1013.23 85.173C1014.87 84.8967 1016.34 84.7077 1017.59 84.6059C1024.02 84.0956 1030.47 83.9499 1036.91 84.1697C1040.14 84.257 1043.41 84.3878 1046.65 84.5477C1051.38 84.7658 1053.55 84.9403 1057.11 85.3765C1062.55 86.0454 1066.33 90.3347 1065.83 97.2848C1065.15 106.358 1064.83 115.416 1064.77 124.286C1064.77 126.627 1064.77 128.938 1064.77 131.25C1064.89 171.701 1070.14 206.597 1069.73 215.568Z" fill="#FCC50C"/>
<path opacity="0.5" d="M1069.73 215.568C1036 219.363 1003.82 216.775 986.372 213.867C987.244 205.244 992.639 100.687 994.834 94.6385C996.87 89.0261 1006.47 86.2926 1013.23 85.173C1014.87 84.8967 1016.34 84.7077 1017.59 84.6059C1024.02 84.0956 1030.47 83.9499 1036.91 84.1697C1040.14 84.257 1043.41 84.3878 1046.65 84.5477C1051.38 84.7658 1053.55 84.9403 1057.11 85.3765C1062.55 86.0454 1066.33 90.3347 1065.83 97.2848C1065.15 106.358 1064.83 115.416 1064.77 124.286C1064.77 126.627 1064.77 128.938 1064.77 131.25C1064.89 171.701 1070.14 206.597 1069.73 215.568Z" fill="white"/>
<path d="M1066.34 174.492L1073.02 183.667C1082.11 178.466 1090.83 172.636 1099.11 166.219C1101.21 164.576 1103.32 162.875 1105.38 160.97C1107.68 158.933 1109.8 156.695 1111.71 154.282C1112.31 153.488 1112.86 152.658 1113.36 151.795C1114.1 150.559 1114.66 149.229 1115.04 147.84C1115.19 147.332 1115.29 146.811 1115.36 146.285C1115.46 145.645 1115.5 144.998 1115.5 144.351C1115.5 143.962 1115.47 143.573 1115.41 143.188C1115.41 142.78 1115.31 142.373 1115.23 141.952C1115.12 141.488 1114.99 141.032 1114.83 140.585L1114.6 139.916L1114.44 139.553L1114.09 138.826L1113.8 138.288L1113.52 137.793L1113.28 137.401C1112.94 136.863 1112.68 136.485 1112.4 136.063C1111.33 134.609 1110.41 133.431 1109.5 132.326C1108.58 131.221 1107.66 130.174 1106.76 129.156C1103.13 125.143 1099.49 121.45 1095.81 117.786C1092.14 114.122 1088.41 110.516 1084.62 107.099C1077.35 100.295 1069.85 93.708 1062.07 87.3976C1061.65 87.0618 1061.14 86.868 1060.61 86.8451H1060.31C1048.68 86.9323 1043.67 101.836 1052.46 109.513C1058.08 114.442 1063.83 119.298 1069.53 124.14L1080.88 133.897C1084.69 137.124 1088.46 140.396 1091.98 143.609C1092.82 144.394 1093.66 145.165 1094.43 145.921C1093.82 146.735 1093.12 147.593 1092.43 148.422C1090.97 150.152 1089.34 151.926 1087.69 153.685C1081 160.694 1073.61 167.629 1066.34 174.492Z" fill="#FCC50C"/>
<path d="M1071.29 170.726C1071.29 170.726 1060.47 171.352 1058.58 172.762C1056.69 174.172 1062.94 186.691 1066.02 189.047C1069.1 191.402 1068.46 186.72 1068.46 186.72C1071.63 185.673 1074.58 184.073 1077.19 181.995C1080.27 179.159 1079.54 173.576 1071.29 170.726Z" fill="#FFC3BD"/>
<path d="M1036.8 84.1115C1034.32 88.3281 1027.56 97.3429 1017.75 97.372C1010.48 97.372 1011.21 88.8515 1013.17 85.1148C1014.81 84.8385 1016.28 84.6495 1017.53 84.5477C1023.94 84.0396 1030.37 83.8939 1036.8 84.1115Z" fill="#FCC50C"/>
<path d="M1011.83 32.2765C1021.02 31.3168 1023.91 32.5818 1028.58 35.6497C1031.64 37.6562 1036.04 41.6838 1036.8 46.5402C1039.09 61.3419 1028.52 66.7653 1028.52 66.7653L999.734 50.4515C999.734 50.4515 991.985 40.4479 999.429 33.5705C1003.17 30.11 1007.25 32.7563 1011.83 32.2765Z" fill="#263238"/>
<path d="M1014.25 77.9175C1014.24 77.9512 1014.24 77.9856 1014.25 78.0193L1015.7 83.181C1015.8 84.2206 1015.8 85.2675 1015.7 86.3071C1015.68 87.1504 1015.6 87.9911 1015.45 88.8225C1014.84 90.6255 1014.58 94.1732 1017.85 93.9115C1022.94 93.5189 1032.26 86.3798 1032.58 84.1406C1030.17 77.176 1028.13 69.0481 1028.47 62.3306L1022.65 68.6701L1014.25 77.9175Z" fill="#FFC3BD"/>
<g opacity="0.2">
<path d="M1014.29 78.0339L1015.74 83.1956C1018.93 81.7416 1022.24 78.5573 1023.01 75.155C1023.54 72.6977 1022.42 70.4149 1021.43 70.2986L1014.29 78.0339Z" fill="black"/>
</g>
<path d="M1001.29 67.3033C1001.6 68.4229 1001.94 69.5279 1002.32 70.6184C1005.61 80.2439 1017.52 81.029 1024.87 73.8608C1025.55 73.2177 1026.17 72.5171 1026.72 71.7671C1031.37 65.5439 1030.17 60.7894 1029.37 49.9571C1029.21 47.4454 1028.42 45.0146 1027.06 42.896C1025.71 40.7774 1023.83 39.0415 1021.61 37.8537C1019.39 36.6658 1016.91 36.0655 1014.39 36.1098C1011.87 36.1542 1009.41 36.8417 1007.24 38.107C998.251 43.2832 998.179 56.0784 1001.29 67.3033Z" fill="#FFC3BD"/>
<path d="M1001.09 66.5327C1001.09 66.5327 1001.39 78.5573 1008.6 80.5784C1014.25 82.1778 1023.55 79.6914 1024.31 71.6799C1025 64.4099 1025.12 57.3434 1025.12 57.3434L1022.46 57.925C1022.46 57.925 1018.78 63.741 1017.25 64.0173C1015.73 64.2936 1015.22 62.476 1007.86 63.7556C1002.51 64.6861 1001.09 66.5327 1001.09 66.5327Z" fill="#263238"/>
<path d="M1005.9 68.0012C1008.4 67.1954 1010.85 66.2538 1013.24 65.1805C1013.37 66.2145 1013.1 67.2589 1012.49 68.1015C1011.88 68.9442 1010.97 69.5218 1009.94 69.717C1009.17 69.8919 1008.37 69.8203 1007.64 69.5123C1006.92 69.2043 1006.31 68.6756 1005.9 68.0012Z" fill="white"/>
<path d="M1022.47 47.2963C1025.19 47.9651 1022.47 57.925 1022.47 57.925L1026.31 57.0962C1026.31 57.0962 1026.02 56.7327 1026.15 53.941C1026.28 51.1494 1029.53 51.0331 1029.53 51.0331C1029.53 51.0331 1030.33 42.9488 1026.11 37.9471C1021.89 32.9453 1011.57 33.6723 1006.45 37.1619C1003.23 39.599 1001.02 43.1332 1000.24 47.0927C1000.24 47.0927 1003.76 42.0473 1005.32 42.0473C1006.87 42.0473 1005.4 44.1847 1007.03 44.1411C1010.17 44.0539 1011.64 39.2266 1016.66 40.4043C1021.67 41.5821 1016.03 45.6969 1022.47 47.2963Z" fill="#263238"/>
<path d="M1034.95 56.4856C1034.54 59.1725 1033.08 61.5873 1030.89 63.203C1027.99 65.3259 1025.27 63.014 1025.08 59.6117C1024.86 56.5437 1026.12 51.7455 1029.56 50.9749C1030.31 50.8221 1031.09 50.8595 1031.82 51.0837C1032.56 51.3078 1033.23 51.7116 1033.77 52.2587C1034.31 52.8057 1034.7 53.4786 1034.91 54.2167C1035.13 54.9547 1035.16 55.7345 1034.99 56.4856" fill="#FFC3BD"/>
<path d="M1013.43 57.2998C1013.55 58.1431 1013.2 58.8992 1012.65 58.9719C1012.09 59.0446 1011.56 58.4194 1011.44 57.5179C1011.32 56.6164 1011.67 55.933 1012.22 55.8458C1012.78 55.7585 1013.33 56.3983 1013.43 57.2998Z" fill="#263238"/>
<path d="M1004.17 58.4484C1004.29 59.2918 1003.94 60.0333 1003.38 60.106C1002.83 60.1787 1002.28 59.5535 1002.18 58.652C1002.08 57.7505 1002.41 57.0671 1002.96 56.9944C1003.51 56.9217 1004.05 57.547 1004.17 58.4484Z" fill="#263238"/>
<path d="M1000.58 55.2206C1000.65 55.2145 1000.73 55.1867 1000.79 55.1404C1000.85 55.094 1000.9 55.0311 1000.93 54.9589C1001.02 54.6696 1001.17 54.4024 1001.37 54.1746C1001.57 53.9468 1001.81 53.7632 1002.09 53.6357C1002.66 53.4199 1003.28 53.4199 1003.85 53.6357C1003.96 53.6793 1004.07 53.6793 1004.18 53.6358C1004.29 53.5922 1004.37 53.5086 1004.42 53.4031C1004.44 53.3517 1004.45 53.296 1004.46 53.2393C1004.46 53.1826 1004.45 53.1261 1004.43 53.0732C1004.41 53.0202 1004.38 52.9719 1004.34 52.9312C1004.3 52.8904 1004.25 52.8581 1004.2 52.836C1003.41 52.5417 1002.54 52.5417 1001.76 52.836C1001.37 53.0091 1001.03 53.2584 1000.75 53.5686C1000.47 53.8787 1000.26 54.243 1000.13 54.639C1000.11 54.6905 1000.09 54.7457 1000.09 54.8015C1000.09 54.8572 1000.11 54.9124 1000.13 54.9638C1000.15 55.0152 1000.18 55.0617 1000.22 55.1008C1000.26 55.1399 1000.31 55.1707 1000.36 55.1915C1000.43 55.2218 1000.5 55.2319 1000.58 55.2206Z" fill="#263238"/>
<path d="M1015.45 53.5048C1015.52 53.5028 1015.59 53.4772 1015.64 53.4321C1015.73 53.37 1015.8 53.2741 1015.82 53.1652C1015.84 53.0563 1015.82 52.9432 1015.76 52.8505C1015.28 52.1587 1014.56 51.6712 1013.74 51.4838C1013.32 51.4178 1012.9 51.438 1012.49 51.543C1012.09 51.6481 1011.71 51.8359 1011.38 52.0945C1011.29 52.164 1011.23 52.266 1011.21 52.3796C1011.19 52.4931 1011.21 52.6096 1011.28 52.7051C1011.35 52.7959 1011.45 52.8571 1011.56 52.8761C1011.67 52.8951 1011.78 52.8703 1011.88 52.8069C1012.11 52.6134 1012.38 52.4708 1012.68 52.3882C1012.97 52.3056 1013.28 52.2848 1013.58 52.3271C1014.16 52.4834 1014.67 52.8318 1015.03 53.3158C1015.07 53.3879 1015.13 53.445 1015.21 53.4789C1015.29 53.5129 1015.37 53.522 1015.45 53.5048Z" fill="#263238"/>
<path d="M1007.73 55.5404C1006.99 58.0829 1005.89 60.503 1004.45 62.7232C1004.23 63.043 1008.12 63.6973 1008.12 63.6973L1007.73 55.5404Z" fill="#ED847E"/>
<path d="M821.212 239.174C822.904 260.032 825.817 280.773 829.936 301.289C831.4 308.879 833.087 316.978 834.996 325.586C831.812 377.595 848.475 447.387 848.475 447.387L861.125 447.111C861.125 447.111 865.487 366.632 865.356 324.495C865.254 255.459 859.016 189.753 859.016 189.753L824.571 189.622C824.571 189.622 818.304 199.989 821.212 239.174Z" fill="#FCC50C"/>
<path opacity="0.2" d="M821.212 239.174C822.904 260.032 825.817 280.773 829.936 301.289C831.4 308.879 833.087 316.978 834.996 325.586C831.812 377.595 848.475 447.387 848.475 447.387L861.125 447.111C861.125 447.111 865.487 366.632 865.356 324.495C865.254 255.459 859.016 189.753 859.016 189.753L824.571 189.622C824.571 189.622 818.304 199.989 821.212 239.174Z" fill="white"/>
<path opacity="0.2" d="M821.213 239.174C822.904 260.032 825.817 280.772 829.937 301.289C838.123 273.663 827.029 214.747 827.029 214.747L821.213 239.174Z" fill="black"/>
<path d="M831.769 200.585C831.769 200.585 824.964 296.985 818.479 331.576L770.977 440.437L759.345 433.923C759.345 433.923 777.215 348.995 791.522 322.823C791.522 322.823 781.17 236.034 793.267 197.125L831.769 200.585Z" fill="#FCC50C"/>
<path opacity="0.2" d="M831.769 200.585C831.769 200.585 824.964 296.985 818.479 331.576L770.977 440.437L759.345 433.923C759.345 433.923 777.215 348.995 791.522 322.823C791.522 322.823 781.17 236.034 793.267 197.125L831.769 200.585Z" fill="white"/>
<path d="M862.099 152.458C861.858 157.48 862.038 162.514 862.637 167.507C862.826 169.6 863.029 171.781 863.218 174.021C863.989 183.326 864.541 193.693 862.724 203.304C862.591 204.028 862.267 204.702 861.787 205.259C861.306 205.817 860.686 206.236 859.99 206.474C850.598 209.527 818.29 208.102 793.79 202.112C793.228 201.985 792.697 201.748 792.228 201.415C791.758 201.082 791.359 200.66 791.054 200.172C790.748 199.684 790.542 199.14 790.448 198.572C790.354 198.004 790.373 197.423 790.504 196.863C792.739 185.924 793.961 174.802 794.153 163.639C794.153 161.851 794.24 160.048 794.255 158.172C794.284 144.703 793.409 131.248 791.638 117.896C791.398 115.96 791.542 113.995 792.062 112.115C792.582 110.234 793.467 108.474 794.668 106.936C795.868 105.398 797.36 104.112 799.058 103.151C800.756 102.189 802.627 101.573 804.564 101.335C806.89 101.073 809.333 100.826 811.834 100.681C820.663 99.9095 829.535 99.7686 838.384 100.259C841.292 100.463 844.2 100.783 847.108 101.132C852.063 101.735 856.613 104.171 859.863 107.959C863.113 111.748 864.829 116.615 864.672 121.604C864.134 135.039 874.661 142.774 862.099 152.458Z" fill="#263238"/>
<path opacity="0.2" d="M809.129 124.236C809.129 124.236 809.711 141.044 813.913 147.5L805.552 145.871C805.552 145.871 805.872 131.317 809.129 124.236Z" fill="black"/>
<path opacity="0.2" d="M863.219 174.035C853.68 171.403 838.573 163.116 838.573 163.116L862.637 167.478C862.826 169.673 863.03 171.781 863.219 174.035Z" fill="black"/>
<path opacity="0.2" d="M845.218 158.914C845.218 158.914 819.976 176.042 809.086 174.224C802.746 173.163 797.454 167.885 794.153 163.668C794.153 161.88 794.241 160.077 794.255 158.201L845.218 158.914Z" fill="black"/>
<path d="M839.998 123.756C840.791 123.761 841.57 123.55 842.252 123.145C849.26 119.089 841.67 100.463 841.336 99.6776C841.284 99.5659 841.191 99.4786 841.076 99.4337C840.961 99.3889 840.833 99.3899 840.719 99.4367C840.605 99.4834 840.513 99.5723 840.463 99.6848C840.413 99.7973 840.408 99.9249 840.449 100.041C840.522 100.23 848.053 118.681 841.772 122.316C841.304 122.584 840.783 122.746 840.245 122.791C839.708 122.836 839.167 122.763 838.661 122.578C830.969 120.208 821.082 99.8521 820.98 99.6485C820.918 99.546 820.819 99.4705 820.704 99.4369C820.589 99.4032 820.466 99.4139 820.358 99.4668C820.25 99.5197 820.166 99.611 820.123 99.7227C820.079 99.8343 820.079 99.9583 820.122 100.07C820.529 100.928 830.3 121.008 838.37 123.494C838.896 123.663 839.445 123.751 839.998 123.756Z" fill="white"/>
<path d="M854.334 72.6186C854.334 72.6186 860.645 60.8849 851.63 52.946C842.615 45.0072 827.319 47.0573 820.718 56.8863C814.117 66.7154 816.632 79.307 822.754 83.7272C827.857 87.4058 827.116 91.3462 827.116 91.3462L854.334 72.6186Z" fill="#263238"/>
<path d="M834.139 48.9911C834.139 40.7906 820.718 35.7452 812.925 40.6452C802.121 47.4499 811.602 57.2499 809.624 62.9059C807.647 68.562 799.679 64.2436 799.679 64.2436C799.679 64.2436 805.495 76.6608 814.786 73.2584C823.117 70.205 825.444 59.7217 825.444 59.7217C825.444 59.7217 834.139 57.1772 834.139 48.9911Z" fill="#263238"/>
<path d="M818.915 58.5729C818.999 58.5714 819.08 58.544 819.148 58.4946C819.216 58.4452 819.266 58.376 819.293 58.2967C822.899 47.7988 833.601 48.424 834.066 48.4531C834.17 48.4531 834.27 48.4117 834.343 48.3381C834.417 48.2645 834.458 48.1646 834.458 48.0605C834.458 47.9564 834.417 47.8566 834.343 47.7829C834.27 47.7093 834.17 47.6679 834.066 47.6679C833.95 47.6679 822.318 46.9555 818.494 58.035C818.461 58.1353 818.468 58.2444 818.514 58.3394C818.56 58.4343 818.642 58.5076 818.741 58.5439L818.915 58.5729Z" fill="#FCC50C"/>
<g opacity="0.5">
<path d="M818.915 58.5729C818.999 58.5714 819.081 58.544 819.148 58.4946C819.216 58.4452 819.267 58.376 819.293 58.2967C822.899 47.7988 833.601 48.424 834.066 48.4531C834.17 48.4531 834.27 48.4117 834.344 48.3381C834.417 48.2645 834.459 48.1646 834.459 48.0605C834.459 47.9564 834.417 47.8566 834.344 47.7829C834.27 47.7093 834.17 47.6679 834.066 47.6679C833.95 47.6679 822.318 46.9555 818.494 58.035C818.461 58.1353 818.468 58.2444 818.515 58.3394C818.561 58.4343 818.642 58.5076 818.741 58.5439L818.915 58.5729Z" fill="white"/>
</g>
<path d="M840.027 100.914C840.1 101.03 840.158 101.161 840.216 101.277C842.412 111.164 828.992 108.663 823.539 100.099C827.16 95.272 827.901 86.8679 827.029 80.8047L837.977 89.834L840.1 91.8696C839.602 93.3677 839.285 94.92 839.155 96.4933C839.002 98.0206 839.305 99.559 840.027 100.914Z" fill="#FF8B7B"/>
<g opacity="0.2">
<path d="M839.155 96.4933C839.284 94.9199 839.602 93.3677 840.1 91.8696L837.977 89.834L832.306 89.7031C832.306 89.7031 834.967 95.1847 839.155 96.4933Z" fill="black"/>
</g>
<path d="M822.913 69.449C824.367 80.4121 824.891 83.2184 830.765 88.4673C839.62 96.3625 852.429 94.007 854.174 82.8112C855.759 72.735 853.04 56.4793 842.135 52.8879C831.23 49.2965 821.416 58.4713 822.913 69.449Z" fill="#FF8B7B"/>
<path d="M843.589 83.6836C844.393 83.6836 845.043 82.8438 845.043 81.8079C845.043 80.772 844.393 79.9323 843.589 79.9323C842.786 79.9323 842.135 80.772 842.135 81.8079C842.135 82.8438 842.786 83.6836 843.589 83.6836Z" fill="white"/>
<path d="M842.63 66.1484C842.579 66.2022 842.518 66.2454 842.451 66.2753C842.383 66.3053 842.311 66.3214 842.237 66.3228C841.569 66.3812 840.928 66.6149 840.379 67.0005C839.83 67.386 839.392 67.9096 839.111 68.5184C839.057 68.6398 838.957 68.7349 838.833 68.7826C838.709 68.8304 838.571 68.8268 838.449 68.7728C838.328 68.7188 838.233 68.6188 838.185 68.4947C838.137 68.3707 838.141 68.2327 838.195 68.1113C838.553 67.3209 839.12 66.6433 839.835 66.1513C840.55 65.6594 841.385 65.3718 842.251 65.3196C842.384 65.3234 842.51 65.3787 842.602 65.4737C842.694 65.5687 842.746 65.696 842.746 65.8285C842.745 65.9453 842.704 66.0583 842.63 66.1484Z" fill="#263238"/>
<path d="M852.692 68.213C852.622 68.19 852.559 68.152 852.506 68.1018C852.454 68.0515 852.413 67.9902 852.386 67.9222C852.073 67.3287 851.608 66.8289 851.038 66.4738C850.468 66.1188 849.815 65.9212 849.144 65.9011C849.011 65.8973 848.886 65.842 848.793 65.747C848.701 65.652 848.649 65.5247 848.649 65.3922C848.651 65.3273 848.666 65.2634 848.693 65.2041C848.719 65.1448 848.757 65.0914 848.804 65.0468C848.852 65.0023 848.907 64.9675 848.968 64.9444C849.029 64.9213 849.093 64.9105 849.158 64.9124C850.026 64.93 850.872 65.1845 851.605 65.6484C852.338 66.1123 852.93 66.7678 853.317 67.5441C853.343 67.6051 853.356 67.6707 853.356 67.7369C853.356 67.8032 853.343 67.8688 853.317 67.9298C853.291 67.9908 853.254 68.0461 853.206 68.0922C853.159 68.1384 853.102 68.1745 853.041 68.1984C852.93 68.247 852.806 68.2521 852.692 68.213Z" fill="#263238"/>
<path d="M844.622 52.1173C844.622 52.1173 843.357 65.4214 830.082 64.1273C816.807 62.8332 827.494 52.2045 833.353 50.6196C837.168 49.7724 841.16 50.303 844.622 52.1173Z" fill="#263238"/>
<path d="M830.111 54.1383C830.111 54.1383 835.156 67.8932 831.114 72.5023C827.072 77.1115 820.035 70.4086 820.035 70.4086C820.035 70.4086 820.689 55.3306 830.111 54.1383Z" fill="#263238"/>
<path d="M840.565 70.9611C840.638 71.848 841.161 72.5459 841.743 72.5023C842.324 72.4587 842.761 71.7026 842.688 70.8011C842.615 69.8997 842.092 69.2163 841.51 69.2599C840.929 69.3035 840.492 70.0596 840.565 70.9611Z" fill="#263238"/>
<path d="M849.609 70.4958C849.681 71.3827 850.205 72.0807 850.801 72.0371C851.397 71.9934 851.804 71.2228 851.732 70.3359C851.659 69.4489 851.135 68.7365 850.554 68.7801C849.972 68.8237 849.536 69.5943 849.609 70.4958Z" fill="#263238"/>
<path d="M850.293 68.8528L852.401 68.0676C852.401 68.0676 851.427 69.8415 850.293 68.8528Z" fill="#263238"/>
<path d="M845.931 70.9175C845.931 70.9175 847.661 73.1712 849.493 75.105C849.636 75.25 849.744 75.4258 849.809 75.619C849.874 75.8121 849.894 76.0175 849.867 76.2194C849.84 76.4214 849.768 76.6146 849.655 76.7844C849.542 76.9541 849.392 77.0958 849.217 77.1987C848.362 77.6863 847.454 78.0765 846.512 78.362L845.931 70.9175Z" fill="#FF5652"/>
<path d="M841.248 69.3472L843.357 68.562C843.357 68.562 842.382 70.3359 841.248 69.3472Z" fill="#263238"/>
<path d="M819.569 77.3733C820.043 78.2615 820.7 79.0387 821.497 79.653C822.294 80.2672 823.213 80.7045 824.193 80.9356C826.694 81.4445 827.712 78.6528 826.825 75.9774C826.01 73.5783 823.742 70.4086 821.329 71.1356C818.915 71.8626 818.261 75.0469 819.569 77.3733Z" fill="#FF8B7B"/>
<path d="M824.688 82.0406C824.397 82.2523 824.049 82.3728 823.69 82.3869C823.33 82.401 822.974 82.3079 822.667 82.1195C822.361 81.9312 822.117 81.656 821.967 81.3289C821.817 81.0017 821.767 80.6374 821.824 80.282C821.881 79.9267 822.043 79.5963 822.288 79.3328C822.533 79.0692 822.851 78.8845 823.201 78.8018C823.552 78.7192 823.919 78.7425 824.256 78.8686C824.593 78.9948 824.885 79.2183 825.095 79.5106C825.375 79.9006 825.489 80.3855 825.413 80.8595C825.337 81.3336 825.076 81.7581 824.688 82.0406Z" fill="white"/>
<path d="M809.697 117.082L809.246 122.534C809.13 124.381 808.984 126.242 808.897 128.089C808.679 131.782 808.606 135.461 808.635 139.008C808.648 142.312 808.93 145.609 809.479 148.866C809.685 149.94 809.992 150.991 810.395 152.007C810.497 152.283 810.54 152.341 810.322 152.196C810.253 152.151 810.18 152.112 810.104 152.08C810.104 152.08 810.191 152.08 810.22 152.182L810.656 152.487C811.6 152.996 812.622 153.345 813.681 153.519C815.121 153.77 816.582 153.877 818.043 153.839C821.51 153.732 824.96 153.314 828.352 152.589C835.696 150.979 842.931 148.91 850.016 146.395L853.797 153.156C850.505 155.621 847.056 157.869 843.473 159.888C839.863 161.959 836.118 163.785 832.263 165.355C828.191 167.037 823.95 168.275 819.613 169.048C817.212 169.454 814.778 169.629 812.343 169.571C809.475 169.517 806.64 168.956 803.968 167.914C803.222 167.622 802.494 167.287 801.787 166.911C801.394 166.692 801.118 166.562 800.638 166.256C800.161 165.945 799.7 165.611 799.257 165.253C797.767 164.015 796.49 162.542 795.477 160.891C794.008 158.465 792.91 155.833 792.22 153.083C791.087 148.683 790.434 144.174 790.271 139.633C790.046 135.439 790.046 131.236 790.271 127.042C790.402 124.977 790.533 122.927 790.766 120.877C790.998 118.827 791.231 116.849 791.58 114.625L809.697 117.082Z" fill="#263238"/>
<path d="M880.303 162.519C880.197 163.875 879.795 165.19 879.125 166.373C878.8 166.953 878.41 167.495 877.962 167.986C877.594 168.381 877.201 168.75 876.784 169.092C876.441 169.368 876.077 169.616 875.694 169.833C875.359 170.022 875.025 170.211 874.676 170.371C874.201 170.581 873.716 170.765 873.222 170.924C872.844 171.025 872.466 171.098 872.073 171.171C871.041 171.343 869.994 171.416 868.947 171.389C868.089 171.389 867.348 171.316 866.664 171.243C864.19 170.903 861.739 170.418 859.322 169.789C857.053 169.222 854.843 168.641 852.691 167.972C848.329 166.649 844.171 165.253 840.027 163.712L838.573 163.159H838.457C838.247 163.099 838.043 163.022 837.846 162.927C837.41 162.781 836.974 162.621 836.552 162.447C829.471 159.786 822.521 156.922 815.629 153.723L818.29 145.769L843.662 151.106C847.864 151.934 852.066 152.807 856.181 153.505C857.635 153.752 860.95 154.959 862.331 155.191C861.154 152.356 857.969 148.474 856.792 145.609C853.462 137.7 850.118 129.717 846.992 121.72L863.756 114.596C867.391 122.593 870.648 130.691 873.702 138.95C875.257 143.079 876.61 147.238 878.064 151.571C878.747 153.825 879.372 155.787 880.027 158.841L880.259 160.048V160.193V160.469V160.876C880.317 161.422 880.331 161.971 880.303 162.519Z" fill="#263238"/>
<path opacity="0.2" d="M856.806 120.775C859.888 125.923 862.632 131.266 865.021 136.769C867.508 143.21 862.113 149.201 862.113 149.201L863.247 151.135C863.247 151.135 868.976 144.141 867.042 137.438C865.617 132.64 856.806 120.775 856.806 120.775Z" fill="black"/>
<path opacity="0.2" d="M853.011 153.679C851.208 154.959 843.051 160.687 838.471 163.29H838.355C838.145 163.23 837.941 163.152 837.744 163.057C838.399 162.563 849.216 156.209 853.011 153.679Z" fill="black"/>
<path d="M850.118 146.525C850.118 146.525 852.691 144.999 858.594 146.685C866.257 150.96 864.512 155.802 862.724 155.293L853.825 153.141L850.118 146.525Z" fill="#FF8B7B"/>
<path d="M820.733 146.409C817.765 144.945 814.722 143.639 811.616 142.498C809.13 141.815 808.621 142.571 808.621 142.571L808.883 145.072C808.883 145.072 804.361 150.001 803.619 154.232C802.877 158.463 811.253 154.712 814.19 154.363C816.121 154.159 818.065 154.101 820.006 154.188C821.052 153.679 821.983 147.95 820.733 146.409Z" fill="#FF8B7B"/>
</g>
</svg>
