<svg width="81" height="81" viewBox="0 0 81 81" fill="none" xmlns="http://www.w3.org/2000/svg">
<circle cx="78.8741" cy="1.38375" r="1.38375" transform="rotate(90 78.8741 1.38375)" fill="#FCC50C"/>
<circle cx="78.8741" cy="11.0698" r="1.38375" transform="rotate(90 78.8741 11.0698)" fill="#FCC50C"/>
<circle cx="78.8741" cy="20.757" r="1.38375" transform="rotate(90 78.8741 20.757)" fill="#FCC50C"/>
<circle cx="78.8741" cy="30.4428" r="1.38375" transform="rotate(90 78.8741 30.4428)" fill="#FCC50C"/>
<circle cx="78.8741" cy="40.1286" r="1.38375" transform="rotate(90 78.8741 40.1286)" fill="#FCC50C"/>
<circle cx="78.8741" cy="49.8158" r="1.38375" transform="rotate(90 78.8741 49.8158)" fill="#FCC50C"/>
<circle cx="78.8741" cy="59.5015" r="1.38375" transform="rotate(90 78.8741 59.5015)" fill="#FCC50C"/>
<circle cx="78.8741" cy="69.1874" r="1.38375" transform="rotate(90 78.8741 69.1874)" fill="#FCC50C"/>
<circle cx="78.8741" cy="78.8746" r="1.38375" transform="rotate(90 78.8741 78.8746)" fill="#FCC50C"/>
<circle cx="69.1885" cy="1.38393" r="1.38375" transform="rotate(90 69.1885 1.38393)" fill="#FCC50C"/>
<circle cx="69.1885" cy="11.0698" r="1.38375" transform="rotate(90 69.1885 11.0698)" fill="#FCC50C"/>
<circle cx="69.1885" cy="20.757" r="1.38375" transform="rotate(90 69.1885 20.757)" fill="#FCC50C"/>
<circle cx="69.1885" cy="30.4428" r="1.38375" transform="rotate(90 69.1885 30.4428)" fill="#FCC50C"/>
<circle cx="69.1885" cy="40.1286" r="1.38375" transform="rotate(90 69.1885 40.1286)" fill="#FCC50C"/>
<circle cx="69.1885" cy="49.8158" r="1.38375" transform="rotate(90 69.1885 49.8158)" fill="#FCC50C"/>
<circle cx="69.1885" cy="59.5015" r="1.38375" transform="rotate(90 69.1885 59.5015)" fill="#FCC50C"/>
<circle cx="69.1885" cy="69.1874" r="1.38375" transform="rotate(90 69.1885 69.1874)" fill="#FCC50C"/>
<circle cx="69.1885" cy="78.8746" r="1.38375" transform="rotate(90 69.1885 78.8746)" fill="#FCC50C"/>
<circle cx="59.501" cy="1.38393" r="1.38375" transform="rotate(90 59.501 1.38393)" fill="#FCC50C"/>
<circle cx="59.501" cy="11.0698" r="1.38375" transform="rotate(90 59.501 11.0698)" fill="#FCC50C"/>
<circle cx="59.501" cy="20.757" r="1.38375" transform="rotate(90 59.501 20.757)" fill="#FCC50C"/>
<circle cx="59.501" cy="30.4428" r="1.38375" transform="rotate(90 59.501 30.4428)" fill="#FCC50C"/>
<circle cx="59.501" cy="40.1286" r="1.38375" transform="rotate(90 59.501 40.1286)" fill="#FCC50C"/>
<circle cx="59.501" cy="49.8158" r="1.38375" transform="rotate(90 59.501 49.8158)" fill="#FCC50C"/>
<circle cx="59.501" cy="59.5015" r="1.38375" transform="rotate(90 59.501 59.5015)" fill="#FCC50C"/>
<circle cx="59.501" cy="69.1874" r="1.38375" transform="rotate(90 59.501 69.1874)" fill="#FCC50C"/>
<circle cx="59.501" cy="78.8746" r="1.38375" transform="rotate(90 59.501 78.8746)" fill="#FCC50C"/>
<circle cx="49.8155" cy="1.38393" r="1.38375" transform="rotate(90 49.8155 1.38393)" fill="#FCC50C"/>
<circle cx="49.8155" cy="11.0698" r="1.38375" transform="rotate(90 49.8155 11.0698)" fill="#FCC50C"/>
<circle cx="49.8155" cy="20.757" r="1.38375" transform="rotate(90 49.8155 20.757)" fill="#FCC50C"/>
<circle cx="49.8155" cy="30.4428" r="1.38375" transform="rotate(90 49.8155 30.4428)" fill="#FCC50C"/>
<circle cx="49.8155" cy="40.1286" r="1.38375" transform="rotate(90 49.8155 40.1286)" fill="#FCC50C"/>
<circle cx="49.8155" cy="49.8158" r="1.38375" transform="rotate(90 49.8155 49.8158)" fill="#FCC50C"/>
<circle cx="49.8155" cy="59.5015" r="1.38375" transform="rotate(90 49.8155 59.5015)" fill="#FCC50C"/>
<circle cx="49.8155" cy="69.1874" r="1.38375" transform="rotate(90 49.8155 69.1874)" fill="#FCC50C"/>
<circle cx="49.8155" cy="78.8746" r="1.38375" transform="rotate(90 49.8155 78.8746)" fill="#FCC50C"/>
<circle cx="40.1299" cy="1.38393" r="1.38375" transform="rotate(90 40.1299 1.38393)" fill="#FCC50C"/>
<circle cx="40.1299" cy="11.0698" r="1.38375" transform="rotate(90 40.1299 11.0698)" fill="#FCC50C"/>
<circle cx="40.1299" cy="20.757" r="1.38375" transform="rotate(90 40.1299 20.757)" fill="#FCC50C"/>
<circle cx="40.1299" cy="30.4428" r="1.38375" transform="rotate(90 40.1299 30.4428)" fill="#FCC50C"/>
<circle cx="40.1299" cy="40.1286" r="1.38375" transform="rotate(90 40.1299 40.1286)" fill="#FCC50C"/>
<circle cx="40.1299" cy="49.8158" r="1.38375" transform="rotate(90 40.1299 49.8158)" fill="#FCC50C"/>
<circle cx="40.1299" cy="59.5015" r="1.38375" transform="rotate(90 40.1299 59.5015)" fill="#FCC50C"/>
<circle cx="40.1299" cy="69.1874" r="1.38375" transform="rotate(90 40.1299 69.1874)" fill="#FCC50C"/>
<circle cx="40.1299" cy="78.8746" r="1.38375" transform="rotate(90 40.1299 78.8746)" fill="#FCC50C"/>
<circle cx="30.4424" cy="1.38393" r="1.38375" transform="rotate(90 30.4424 1.38393)" fill="#FCC50C"/>
<circle cx="30.4424" cy="11.0698" r="1.38375" transform="rotate(90 30.4424 11.0698)" fill="#FCC50C"/>
<circle cx="30.4424" cy="20.757" r="1.38375" transform="rotate(90 30.4424 20.757)" fill="#FCC50C"/>
<circle cx="30.4424" cy="30.4428" r="1.38375" transform="rotate(90 30.4424 30.4428)" fill="#FCC50C"/>
<circle cx="30.4424" cy="40.1286" r="1.38375" transform="rotate(90 30.4424 40.1286)" fill="#FCC50C"/>
<circle cx="30.4424" cy="49.8158" r="1.38375" transform="rotate(90 30.4424 49.8158)" fill="#FCC50C"/>
<circle cx="30.4424" cy="59.5015" r="1.38375" transform="rotate(90 30.4424 59.5015)" fill="#FCC50C"/>
<circle cx="30.4424" cy="69.1874" r="1.38375" transform="rotate(90 30.4424 69.1874)" fill="#FCC50C"/>
<circle cx="30.4424" cy="78.8746" r="1.38375" transform="rotate(90 30.4424 78.8746)" fill="#FCC50C"/>
<circle cx="20.7569" cy="1.38393" r="1.38375" transform="rotate(90 20.7569 1.38393)" fill="#FCC50C"/>
<circle cx="20.7569" cy="11.0698" r="1.38375" transform="rotate(90 20.7569 11.0698)" fill="#FCC50C"/>
<circle cx="20.7569" cy="20.757" r="1.38375" transform="rotate(90 20.7569 20.757)" fill="#FCC50C"/>
<circle cx="20.7569" cy="30.4428" r="1.38375" transform="rotate(90 20.7569 30.4428)" fill="#FCC50C"/>
<circle cx="20.7569" cy="40.1286" r="1.38375" transform="rotate(90 20.7569 40.1286)" fill="#FCC50C"/>
<circle cx="20.7569" cy="49.8158" r="1.38375" transform="rotate(90 20.7569 49.8158)" fill="#FCC50C"/>
<circle cx="20.7569" cy="59.5015" r="1.38375" transform="rotate(90 20.7569 59.5015)" fill="#FCC50C"/>
<circle cx="20.7569" cy="69.1874" r="1.38375" transform="rotate(90 20.7569 69.1874)" fill="#FCC50C"/>
<circle cx="20.7569" cy="78.8746" r="1.38375" transform="rotate(90 20.7569 78.8746)" fill="#FCC50C"/>
<circle cx="11.0694" cy="1.38393" r="1.38375" transform="rotate(90 11.0694 1.38393)" fill="#FCC50C"/>
<circle cx="11.0694" cy="11.0698" r="1.38375" transform="rotate(90 11.0694 11.0698)" fill="#FCC50C"/>
<circle cx="11.0694" cy="20.757" r="1.38375" transform="rotate(90 11.0694 20.757)" fill="#FCC50C"/>
<circle cx="11.0694" cy="30.4428" r="1.38375" transform="rotate(90 11.0694 30.4428)" fill="#FCC50C"/>
<circle cx="11.0694" cy="40.1286" r="1.38375" transform="rotate(90 11.0694 40.1286)" fill="#FCC50C"/>
<circle cx="11.0694" cy="49.8158" r="1.38375" transform="rotate(90 11.0694 49.8158)" fill="#FCC50C"/>
<circle cx="11.0694" cy="59.5015" r="1.38375" transform="rotate(90 11.0694 59.5015)" fill="#FCC50C"/>
<circle cx="11.0694" cy="69.1874" r="1.38375" transform="rotate(90 11.0694 69.1874)" fill="#FCC50C"/>
<circle cx="11.0694" cy="78.8746" r="1.38375" transform="rotate(90 11.0694 78.8746)" fill="#FCC50C"/>
<circle cx="1.38383" cy="1.38393" r="1.38375" transform="rotate(90 1.38383 1.38393)" fill="#FCC50C"/>
<circle cx="1.38383" cy="11.0698" r="1.38375" transform="rotate(90 1.38383 11.0698)" fill="#FCC50C"/>
<circle cx="1.38383" cy="20.757" r="1.38375" transform="rotate(90 1.38383 20.757)" fill="#FCC50C"/>
<circle cx="1.38383" cy="30.4428" r="1.38375" transform="rotate(90 1.38383 30.4428)" fill="#FCC50C"/>
<circle cx="1.38383" cy="40.1286" r="1.38375" transform="rotate(90 1.38383 40.1286)" fill="#FCC50C"/>
<circle cx="1.38383" cy="49.8158" r="1.38375" transform="rotate(90 1.38383 49.8158)" fill="#FCC50C"/>
<circle cx="1.38383" cy="59.5015" r="1.38375" transform="rotate(90 1.38383 59.5015)" fill="#FCC50C"/>
<circle cx="1.38383" cy="69.1874" r="1.38375" transform="rotate(90 1.38383 69.1874)" fill="#FCC50C"/>
<circle cx="1.38383" cy="78.8746" r="1.38375" transform="rotate(90 1.38383 78.8746)" fill="#FCC50C"/>
</svg>
