<svg width="205" height="205" viewBox="0 0 205 205" fill="none" xmlns="http://www.w3.org/2000/svg">
<circle cx="102.5" cy="89.8921" r="43.8847" fill="#F1F1F1"/>
<rect x="85.2832" y="88.9974" width="42.9641" height="60.1497" rx="4.29641" transform="rotate(2.5 85.2832 88.9974)" fill="#EEEEEE" stroke="#999999" stroke-width="1.22754"/>
<rect x="59.7415" y="85.3998" width="45.4192" height="62.6048" rx="5.52395" transform="rotate(-7.5 59.7415 85.3998)" fill="#FAFAFA" stroke="#999999" stroke-width="1.22754"/>
<path d="M61.0711 90.7964C60.7171 88.1078 62.6097 85.6413 65.2983 85.2873L99.3756 80.801C102.064 80.447 104.531 82.3396 104.885 85.0282L106.086 94.1561L62.2728 99.9242L61.0711 90.7964Z" fill="#EEEEEE"/>
<rect x="113.772" y="82.001" width="1.84132" height="6.13772" rx="0.920659" transform="rotate(82.5 113.772 82.001)" fill="#999999"/>
<rect x="96.957" y="71.8335" width="1.84132" height="6.13772" rx="0.920659" transform="rotate(-7.5 96.957 71.8335)" fill="#999999"/>
<rect x="107.745" y="73.5083" width="1.84132" height="6.13772" rx="0.920659" transform="rotate(37.5 107.745 73.5083)" fill="#999999"/>
<rect x="66.8525" y="101.797" width="35.5988" height="2.45509" rx="1.22754" transform="rotate(-7.5 66.8525 101.797)" fill="#DCDCDC"/>
<rect x="68.4556" y="113.968" width="35.5988" height="2.45509" rx="1.22754" transform="rotate(-7.5 68.4556 113.968)" fill="#DCDCDC"/>
<rect x="70.0576" y="126.138" width="35.5988" height="2.45509" rx="1.22754" transform="rotate(-7.5 70.0576 126.138)" fill="#DCDCDC"/>
<rect x="67.4941" y="106.666" width="12.8892" height="2.45509" rx="1.22754" transform="rotate(-7.5 67.4941 106.666)" fill="#EEEEEE"/>
<rect x="69.0962" y="118.836" width="12.8892" height="2.45509" rx="1.22754" transform="rotate(-7.5 69.0962 118.836)" fill="#EEEEEE"/>
<rect x="70.6982" y="131.006" width="12.8892" height="2.45509" rx="1.22754" transform="rotate(-7.5 70.6982 131.006)" fill="#EEEEEE"/>
</svg>
