<svg width="26" height="22" viewBox="0 0 26 22" fill="none" xmlns="http://www.w3.org/2000/svg">
<path d="M25.4999 0.668945H7.24988C7.11238 0.668945 6.99988 0.781445 6.99988 0.918945V2.66895C6.99988 2.80645 7.11238 2.91895 7.24988 2.91895H25.4999C25.6374 2.91895 25.7499 2.80645 25.7499 2.66895V0.918945C25.7499 0.781445 25.6374 0.668945 25.4999 0.668945ZM25.4999 9.54395H7.24988C7.11238 9.54395 6.99988 9.65645 6.99988 9.79395V11.5439C6.99988 11.6814 7.11238 11.7939 7.24988 11.7939H25.4999C25.6374 11.7939 25.7499 11.6814 25.7499 11.5439V9.79395C25.7499 9.65645 25.6374 9.54395 25.4999 9.54395ZM25.4999 18.4189H7.24988C7.11238 18.4189 6.99988 18.5314 6.99988 18.6689V20.4189C6.99988 20.5564 7.11238 20.6689 7.24988 20.6689H25.4999C25.6374 20.6689 25.7499 20.5564 25.7499 20.4189V18.6689C25.7499 18.5314 25.6374 18.4189 25.4999 18.4189ZM0.249878 1.79395C0.249878 2.02376 0.295143 2.25132 0.383089 2.46364C0.471035 2.67596 0.599939 2.86888 0.762441 3.03138C0.924944 3.19389 1.11786 3.32279 1.33018 3.41073C1.5425 3.49868 1.77006 3.54395 1.99988 3.54395C2.22969 3.54395 2.45725 3.49868 2.66957 3.41073C2.88189 3.32279 3.07481 3.19389 3.23731 3.03138C3.39982 2.86888 3.52872 2.67596 3.61667 2.46364C3.70461 2.25132 3.74988 2.02376 3.74988 1.79395C3.74988 1.56413 3.70461 1.33657 3.61667 1.12425C3.52872 0.91193 3.39982 0.719011 3.23731 0.556509C3.07481 0.394006 2.88189 0.265102 2.66957 0.177156C2.45725 0.0892102 2.22969 0.0439453 1.99988 0.0439453C1.77006 0.0439453 1.5425 0.0892102 1.33018 0.177156C1.11786 0.265102 0.924944 0.394006 0.762441 0.556509C0.599939 0.719011 0.471035 0.91193 0.383089 1.12425C0.295143 1.33657 0.249878 1.56413 0.249878 1.79395ZM0.249878 10.6689C0.249878 10.8988 0.295143 11.1263 0.383089 11.3386C0.471035 11.551 0.599939 11.7439 0.762441 11.9064C0.924944 12.0689 1.11786 12.1978 1.33018 12.2857C1.5425 12.3737 1.77006 12.4189 1.99988 12.4189C2.22969 12.4189 2.45725 12.3737 2.66957 12.2857C2.88189 12.1978 3.07481 12.0689 3.23731 11.9064C3.39982 11.7439 3.52872 11.551 3.61667 11.3386C3.70461 11.1263 3.74988 10.8988 3.74988 10.6689C3.74988 10.4391 3.70461 10.2116 3.61667 9.99925C3.52872 9.78693 3.39982 9.59401 3.23731 9.43151C3.07481 9.26901 2.88189 9.1401 2.66957 9.05216C2.45725 8.96421 2.22969 8.91895 1.99988 8.91895C1.77006 8.91895 1.5425 8.96421 1.33018 9.05216C1.11786 9.1401 0.924944 9.26901 0.762441 9.43151C0.599939 9.59401 0.471035 9.78693 0.383089 9.99925C0.295143 10.2116 0.249878 10.4391 0.249878 10.6689ZM0.249878 19.5439C0.249878 19.7738 0.295143 20.0013 0.383089 20.2136C0.471035 20.426 0.599939 20.6189 0.762441 20.7814C0.924944 20.9439 1.11786 21.0728 1.33018 21.1607C1.5425 21.2487 1.77006 21.2939 1.99988 21.2939C2.22969 21.2939 2.45725 21.2487 2.66957 21.1607C2.88189 21.0728 3.07481 20.9439 3.23731 20.7814C3.39982 20.6189 3.52872 20.426 3.61667 20.2136C3.70461 20.0013 3.74988 19.7738 3.74988 19.5439C3.74988 19.3141 3.70461 19.0866 3.61667 18.8742C3.52872 18.6619 3.39982 18.469 3.23731 18.3065C3.07481 18.144 2.88189 18.0151 2.66957 17.9272C2.45725 17.8392 2.22969 17.7939 1.99988 17.7939C1.77006 17.7939 1.5425 17.8392 1.33018 17.9272C1.11786 18.0151 0.924944 18.144 0.762441 18.3065C0.599939 18.469 0.471035 18.6619 0.383089 18.8742C0.295143 19.0866 0.249878 19.3141 0.249878 19.5439Z" fill="#6D201B"/>
</svg>
