<svg width="538" height="479" viewBox="0 0 538 479" fill="none" xmlns="http://www.w3.org/2000/svg">
<g opacity="0.7">
<g opacity="0.7">
<path opacity="0.7" d="M164.405 337.036L385.295 109.346" stroke="#969696" stroke-width="2" stroke-miterlimit="10" stroke-linecap="round" stroke-linejoin="round" stroke-dasharray="0.3 0.3"/>
<path opacity="0.7" d="M166.175 355.608L400.945 113.215" stroke="#969696" stroke-width="2" stroke-miterlimit="10" stroke-linecap="round" stroke-linejoin="round" stroke-dasharray="0.3 0.3"/>
<path opacity="0.7" d="M173.275 368.535L414.685 119.108" stroke="#969696" stroke-width="2" stroke-miterlimit="10" stroke-linecap="round" stroke-linejoin="round" stroke-dasharray="0.3 0.3"/>
<path opacity="0.7" d="M183.244 378.416L430.054 123.265" stroke="#969696" stroke-width="2" stroke-miterlimit="10" stroke-linecap="round" stroke-linejoin="round" stroke-dasharray="0.3 0.3"/>
<path opacity="0.7" d="M191.025 390.618L445.565 127.282" stroke="#969696" stroke-width="2" stroke-miterlimit="10" stroke-linecap="round" stroke-linejoin="round" stroke-dasharray="0.3 0.3"/>
<path opacity="0.7" d="M200.165 401.392L462.025 130.298" stroke="#969696" stroke-width="2" stroke-miterlimit="10" stroke-linecap="round" stroke-linejoin="round" stroke-dasharray="0.3 0.3"/>
<path opacity="0.7" d="M209.224 412.236L474.624 137.402" stroke="#969696" stroke-width="2" stroke-miterlimit="10" stroke-linecap="round" stroke-linejoin="round" stroke-dasharray="0.3 0.3"/>
<path opacity="0.7" d="M218.304 423.059L490.044 141.519" stroke="#969696" stroke-width="2" stroke-miterlimit="10" stroke-linecap="round" stroke-linejoin="round" stroke-dasharray="0.3 0.3"/>
<path opacity="0.7" d="M227.675 433.585L502.585 148.681" stroke="#969696" stroke-width="2" stroke-miterlimit="10" stroke-linecap="round" stroke-linejoin="round" stroke-dasharray="0.3 0.3"/>
<path opacity="0.7" d="M235.934 445.272L513.034 158.057" stroke="#969696" stroke-width="2" stroke-miterlimit="10" stroke-linecap="round" stroke-linejoin="round" stroke-dasharray="0.3 0.3"/>
<path opacity="0.7" d="M245.315 455.788L524.815 166.033" stroke="#969696" stroke-width="2" stroke-miterlimit="10" stroke-linecap="round" stroke-linejoin="round" stroke-dasharray="0.3 0.3"/>
<path opacity="0.7" d="M255.275 465.679L536.415 174.188" stroke="#969696" stroke-width="2" stroke-miterlimit="10" stroke-linecap="round" stroke-linejoin="round" stroke-dasharray="0.3 0.3"/>
<path opacity="0.7" d="M263.665 477.246L534.875 196.261" stroke="#969696" stroke-width="2" stroke-miterlimit="10" stroke-linecap="round" stroke-linejoin="round" stroke-dasharray="0.3 0.3"/>
</g>
</g>
<path d="M354.875 75.4863C357.641 75.4863 359.884 73.261 359.884 70.516C359.884 67.771 357.641 65.5457 354.875 65.5457C352.108 65.5457 349.865 67.771 349.865 70.516C349.865 73.261 352.108 75.4863 354.875 75.4863Z" fill="url(#paint0_linear_2115_510)"/>
<path d="M354.874 79.028C359.613 79.028 363.454 75.2171 363.454 70.516C363.454 65.815 359.613 62.004 354.874 62.004C350.136 62.004 346.294 65.815 346.294 70.516C346.294 75.2171 350.136 79.028 354.874 79.028Z" stroke="url(#paint1_linear_2115_510)" stroke-miterlimit="10"/>
<path d="M246.014 315.459C246.014 318.782 243.294 321.481 239.944 321.481C236.594 321.481 233.874 318.782 233.874 315.459C233.874 312.135 236.594 309.437 239.944 309.437C243.294 309.437 246.014 312.125 246.014 315.459Z" stroke="url(#paint2_linear_2115_510)" stroke-miterlimit="10"/>
<path d="M379.074 97.3516C385.68 97.3516 391.034 92.0394 391.034 85.4864C391.034 78.9334 385.68 73.6212 379.074 73.6212C372.469 73.6212 367.115 78.9334 367.115 85.4864C367.115 92.0394 372.469 97.3516 379.074 97.3516Z" fill="url(#paint3_linear_2115_510)"/>
<path d="M41.5143 214.079C41.5143 217.115 39.0343 219.575 35.9743 219.575C32.9143 219.575 30.4343 217.115 30.4343 214.079C30.4343 211.043 32.9143 208.583 35.9743 208.583C39.0343 208.583 41.5143 211.043 41.5143 214.079Z" fill="url(#paint4_linear_2115_510)"/>
<path d="M318.944 56.8353L327.864 46.2896" stroke="url(#paint5_linear_2115_510)" stroke-miterlimit="10"/>
<path d="M321.684 59.1072L335.694 42.5495" stroke="url(#paint6_linear_2115_510)" stroke-miterlimit="10"/>
<path d="M318.944 67.8672L333.334 50.8432" stroke="url(#paint7_linear_2115_510)" stroke-miterlimit="10"/>
<path d="M46.8245 179.614L55.7345 169.069" stroke="url(#paint8_linear_2115_510)" stroke-miterlimit="10"/>
<path d="M49.5544 181.896L63.5644 165.328" stroke="url(#paint9_linear_2115_510)" stroke-miterlimit="10"/>
<path d="M46.8245 190.646L61.2045 173.622" stroke="url(#paint10_linear_2115_510)" stroke-miterlimit="10"/>
<path d="M344.184 238.633L355.564 225.16" stroke="url(#paint11_linear_2115_510)" stroke-miterlimit="10"/>
<path d="M347.674 241.54L365.564 220.379" stroke="url(#paint12_linear_2115_510)" stroke-miterlimit="10"/>
<path d="M344.184 252.72L362.564 230.984" stroke="url(#paint13_linear_2115_510)" stroke-miterlimit="10"/>
<g opacity="0.5">
<path opacity="0.5" d="M325.724 3.45188L312.365 18.2238" stroke="url(#paint14_linear_2115_510)" stroke-miterlimit="10"/>
<path opacity="0.5" d="M329.555 6.86461L308.574 30.0692" stroke="url(#paint15_linear_2115_510)" stroke-miterlimit="10"/>
<path opacity="0.5" d="M341.594 1.20972L320.034 25.0492" stroke="url(#paint16_linear_2115_510)" stroke-miterlimit="10"/>
</g>
<path d="M41.5144 232.224L58.4644 212.174" stroke="url(#paint17_linear_2115_510)" stroke-miterlimit="10"/>
<path d="M46.7144 236.549L73.3444 205.061" stroke="url(#paint18_linear_2115_510)" stroke-miterlimit="10"/>
<path d="M41.5144 253.196L68.8644 220.835" stroke="url(#paint19_linear_2115_510)" stroke-miterlimit="10"/>
<path d="M73.3444 188.741C75.1835 188.741 76.6744 187.262 76.6744 185.438C76.6744 183.613 75.1835 182.134 73.3444 182.134C71.5053 182.134 70.0144 183.613 70.0144 185.438C70.0144 187.262 71.5053 188.741 73.3444 188.741Z" fill="white"/>
<path d="M75.5343 254.803C75.5343 256.629 74.0443 258.107 72.2043 258.107C70.3643 258.107 68.8743 256.629 68.8743 254.803C68.8743 252.978 70.3643 251.5 72.2043 251.5C74.0443 251.5 75.5343 252.978 75.5343 254.803Z" fill="white"/>
<path d="M58.0944 94.5837C58.0944 95.427 57.4044 96.1115 56.5544 96.1115C55.7044 96.1115 55.0144 95.427 55.0144 94.5837C55.0144 93.7404 55.7044 93.0559 56.5544 93.0559C57.4044 93.0658 58.0944 93.7404 58.0944 94.5837Z" fill="white"/>
<path d="M353.374 138.741C354.225 138.741 354.914 138.057 354.914 137.213C354.914 136.369 354.225 135.685 353.374 135.685C352.524 135.685 351.834 136.369 351.834 137.213C351.834 138.057 352.524 138.741 353.374 138.741Z" fill="white"/>
<path d="M368.644 274.724C368.644 275.568 367.954 276.252 367.104 276.252C366.254 276.252 365.564 275.568 365.564 274.724C365.564 273.881 366.254 273.197 367.104 273.197C367.954 273.206 368.644 273.881 368.644 274.724Z" fill="white"/>
<path d="M41.5143 73.8196C43.3535 73.8196 44.8443 72.3406 44.8443 70.516C44.8443 68.6915 43.3535 67.2124 41.5143 67.2124C39.6752 67.2124 38.1843 68.6915 38.1843 70.516C38.1843 72.3406 39.6752 73.8196 41.5143 73.8196Z" fill="white"/>
<path d="M132.184 290.191C132.184 292.016 130.694 293.494 128.854 293.494C127.014 293.494 125.524 292.016 125.524 290.191C125.524 288.365 127.014 286.887 128.854 286.887C130.694 286.887 132.184 288.365 132.184 290.191Z" fill="white"/>
<path d="M347.514 288.197C347.514 290.022 346.024 291.5 344.184 291.5C342.344 291.5 340.854 290.022 340.854 288.197C340.854 286.371 342.344 284.893 344.184 284.893C346.024 284.893 347.514 286.371 347.514 288.197Z" fill="white"/>
<path d="M404.524 190.646C404.524 192.472 403.035 193.95 401.195 193.95C399.355 193.95 397.865 192.472 397.865 190.646C397.865 188.821 399.355 187.343 401.195 187.343C403.035 187.333 404.524 188.821 404.524 190.646Z" fill="white"/>
<path d="M4.26433 145.348C6.10344 145.348 7.59431 143.869 7.59431 142.044C7.59431 140.22 6.10344 138.741 4.26433 138.741C2.42522 138.741 0.934326 140.22 0.934326 142.044C0.934326 143.869 2.42522 145.348 4.26433 145.348Z" fill="white"/>
<path d="M98.4441 293.564L107.644 297.274L111.784 283.087L98.4441 293.564Z" fill="#FF7E3D"/>
<path d="M73.3445 281.718L80.8245 300.667L109.534 275.726L73.3445 281.718Z" fill="url(#paint20_linear_2115_510)"/>
<path d="M397.414 125.715L393.404 145.675L360.724 126.122L397.414 125.715Z" fill="#FF7E3D"/>
<path d="M67.4041 49.8114L55.2341 58.2738L69.8741 65.7838L67.4041 49.8114Z" fill="#FF7E3D"/>
<path d="M365.644 159.227L351.814 153.84L353.594 170.09L365.644 159.227Z" fill="url(#paint21_linear_2115_510)"/>
<defs>
<linearGradient id="paint0_linear_2115_510" x1="349.869" y1="70.52" x2="359.879" y2="70.52" gradientUnits="userSpaceOnUse">
<stop offset="0.0277" stop-color="#FFD24D"/>
<stop offset="0.7154" stop-color="#F6BE56"/>
<stop offset="1" stop-color="#F2B45A"/>
</linearGradient>
<linearGradient id="paint1_linear_2115_510" x1="345.791" y1="70.52" x2="363.956" y2="70.52" gradientUnits="userSpaceOnUse">
<stop offset="0.0277" stop-color="#FFD24D"/>
<stop offset="0.7154" stop-color="#F6BE56"/>
<stop offset="1" stop-color="#F2B45A"/>
</linearGradient>
<linearGradient id="paint2_linear_2115_510" x1="233.371" y1="315.455" x2="246.509" y2="315.455" gradientUnits="userSpaceOnUse">
<stop offset="0.0277" stop-color="#FFD24D"/>
<stop offset="0.7154" stop-color="#F6BE56"/>
<stop offset="1" stop-color="#F2B45A"/>
</linearGradient>
<linearGradient id="paint3_linear_2115_510" x1="367.11" y1="85.4908" x2="391.036" y2="85.4908" gradientUnits="userSpaceOnUse">
<stop offset="0.0277" stop-color="#FFD24D"/>
<stop offset="0.7154" stop-color="#F6BE56"/>
<stop offset="1" stop-color="#F2B45A"/>
</linearGradient>
<linearGradient id="paint4_linear_2115_510" x1="30.4419" y1="214.076" x2="41.5138" y2="214.076" gradientUnits="userSpaceOnUse">
<stop offset="0.0277" stop-color="#FFD24D"/>
<stop offset="0.7154" stop-color="#F6BE56"/>
<stop offset="1" stop-color="#F2B45A"/>
</linearGradient>
<linearGradient id="paint5_linear_2115_510" x1="318.168" y1="52.0164" x2="328.642" y2="51.0912" gradientUnits="userSpaceOnUse">
<stop offset="0.0277" stop-color="#FFD24D"/>
<stop offset="0.7154" stop-color="#F6BE56"/>
<stop offset="1" stop-color="#F2B45A"/>
</linearGradient>
<linearGradient id="paint6_linear_2115_510" x1="320.661" y1="51.5263" x2="336.715" y2="50.1082" gradientUnits="userSpaceOnUse">
<stop offset="0.0277" stop-color="#FFD24D"/>
<stop offset="0.7154" stop-color="#F6BE56"/>
<stop offset="1" stop-color="#F2B45A"/>
</linearGradient>
<linearGradient id="paint7_linear_2115_510" x1="317.905" y1="60.0704" x2="334.379" y2="58.6152" gradientUnits="userSpaceOnUse">
<stop offset="0.0277" stop-color="#FFD24D"/>
<stop offset="0.7154" stop-color="#F6BE56"/>
<stop offset="1" stop-color="#F2B45A"/>
</linearGradient>
<linearGradient id="paint8_linear_2115_510" x1="46.4369" y1="174.342" x2="56.1177" y2="174.342" gradientUnits="userSpaceOnUse">
<stop offset="0.0277" stop-color="#FFD24D"/>
<stop offset="0.1674" stop-color="#EBC34D"/>
<stop offset="0.4544" stop-color="#B69D4D"/>
<stop offset="0.8604" stop-color="#625F4E"/>
<stop offset="1" stop-color="#44494E"/>
</linearGradient>
<linearGradient id="paint9_linear_2115_510" x1="49.1742" y1="173.609" x2="63.9458" y2="173.609" gradientUnits="userSpaceOnUse">
<stop offset="0.0277" stop-color="#FFD24D"/>
<stop offset="0.1674" stop-color="#EBC34D"/>
<stop offset="0.4544" stop-color="#B69D4D"/>
<stop offset="0.8604" stop-color="#625F4E"/>
<stop offset="1" stop-color="#44494E"/>
</linearGradient>
<linearGradient id="paint10_linear_2115_510" x1="46.4369" y1="182.135" x2="61.5924" y2="182.135" gradientUnits="userSpaceOnUse">
<stop offset="0.0277" stop-color="#FFD24D"/>
<stop offset="0.1674" stop-color="#EBC34D"/>
<stop offset="0.4544" stop-color="#B69D4D"/>
<stop offset="0.8604" stop-color="#625F4E"/>
<stop offset="1" stop-color="#44494E"/>
</linearGradient>
<linearGradient id="paint11_linear_2115_510" x1="343.281" y1="232.47" x2="356.465" y2="231.306" gradientUnits="userSpaceOnUse">
<stop offset="0.0277" stop-color="#FFD24D"/>
<stop offset="0.7154" stop-color="#F6BE56"/>
<stop offset="1" stop-color="#F2B45A"/>
</linearGradient>
<linearGradient id="paint12_linear_2115_510" x1="346.465" y1="231.844" x2="366.776" y2="230.05" gradientUnits="userSpaceOnUse">
<stop offset="0.0277" stop-color="#FFD24D"/>
<stop offset="0.7154" stop-color="#F6BE56"/>
<stop offset="1" stop-color="#F2B45A"/>
</linearGradient>
<linearGradient id="paint13_linear_2115_510" x1="342.945" y1="242.759" x2="363.793" y2="240.917" gradientUnits="userSpaceOnUse">
<stop offset="0.0277" stop-color="#FFD24D"/>
<stop offset="0.7154" stop-color="#F6BE56"/>
<stop offset="1" stop-color="#F2B45A"/>
</linearGradient>
<linearGradient id="paint14_linear_2115_510" x1="318.642" y1="3.48504" x2="319.433" y2="18.197" gradientUnits="userSpaceOnUse">
<stop offset="0.0277" stop-color="#FFD24D"/>
<stop offset="0.7154" stop-color="#F6BE56"/>
<stop offset="1" stop-color="#F2B45A"/>
</linearGradient>
<linearGradient id="paint15_linear_2115_510" x1="318.444" y1="7.1153" x2="319.665" y2="29.8289" gradientUnits="userSpaceOnUse">
<stop offset="0.0277" stop-color="#FFD24D"/>
<stop offset="0.7154" stop-color="#F6BE56"/>
<stop offset="1" stop-color="#F2B45A"/>
</linearGradient>
<linearGradient id="paint16_linear_2115_510" x1="330.179" y1="1.47457" x2="331.432" y2="24.7911" gradientUnits="userSpaceOnUse">
<stop offset="0.0277" stop-color="#FFD24D"/>
<stop offset="0.7154" stop-color="#F6BE56"/>
<stop offset="1" stop-color="#F2B45A"/>
</linearGradient>
<linearGradient id="paint17_linear_2115_510" x1="40.3476" y1="223.037" x2="59.6248" y2="221.335" gradientUnits="userSpaceOnUse">
<stop offset="0.0277" stop-color="#FFD24D"/>
<stop offset="0.1674" stop-color="#EBC34D"/>
<stop offset="0.4544" stop-color="#B69D4D"/>
<stop offset="0.8604" stop-color="#625F4E"/>
<stop offset="1" stop-color="#44494E"/>
</linearGradient>
<linearGradient id="paint18_linear_2115_510" x1="45.0867" y1="222.106" x2="74.9703" y2="219.466" gradientUnits="userSpaceOnUse">
<stop offset="0.0277" stop-color="#FFD24D"/>
<stop offset="0.1674" stop-color="#EBC34D"/>
<stop offset="0.4544" stop-color="#B69D4D"/>
<stop offset="0.8604" stop-color="#625F4E"/>
<stop offset="1" stop-color="#44494E"/>
</linearGradient>
<linearGradient id="paint19_linear_2115_510" x1="39.8478" y1="238.349" x2="70.5311" y2="235.639" gradientUnits="userSpaceOnUse">
<stop offset="0.0277" stop-color="#FFD24D"/>
<stop offset="0.1674" stop-color="#EBC34D"/>
<stop offset="0.4544" stop-color="#B69D4D"/>
<stop offset="0.8604" stop-color="#625F4E"/>
<stop offset="1" stop-color="#44494E"/>
</linearGradient>
<linearGradient id="paint20_linear_2115_510" x1="73.3431" y1="288.198" x2="109.534" y2="288.198" gradientUnits="userSpaceOnUse">
<stop offset="0.0277" stop-color="#FFD24D"/>
<stop offset="0.7154" stop-color="#FFBE56"/>
<stop offset="1" stop-color="#FFB45A"/>
</linearGradient>
<linearGradient id="paint21_linear_2115_510" x1="350.128" y1="155.575" x2="359.93" y2="165.104" gradientUnits="userSpaceOnUse">
<stop offset="0.0277" stop-color="#FFD24D"/>
<stop offset="0.7154" stop-color="#F6BE56"/>
<stop offset="1" stop-color="#F2B45A"/>
</linearGradient>
</defs>
</svg>
