<svg width="32" height="33" viewBox="0 0 32 33" fill="none" xmlns="http://www.w3.org/2000/svg">
<g clip-path="url(#clip0_2115_666)">
<path d="M29.7688 24.0289C29.7063 23.8072 29.5602 23.6184 29.3612 23.5024C29.1622 23.3863 28.9259 23.352 28.7022 23.4067L26.4888 24.0023C27.7 22.2169 28.4344 20.1515 28.6222 18.0023C28.8037 15.9915 28.5097 13.9662 27.7639 12.0901C27.0181 10.214 25.8413 8.53959 24.3288 7.20228C24.154 7.05766 23.9304 6.98539 23.704 7.00027C23.4776 7.01514 23.2655 7.11603 23.111 7.28228C22.9557 7.45918 22.8768 7.69051 22.8918 7.92549C22.9068 8.16047 23.0144 8.37989 23.191 8.53561C24.4944 9.68604 25.5083 11.1273 26.1508 12.7427C26.7932 14.3581 27.0461 16.1021 26.8888 17.8334C26.7366 19.657 26.125 21.4123 25.111 22.9356L24.8888 20.7045C24.9056 20.5732 24.8928 20.4398 24.8514 20.3141C24.81 20.1883 24.7411 20.0734 24.6496 19.9777C24.5582 19.8821 24.4465 19.808 24.3227 19.761C24.199 19.714 24.0663 19.6952 23.9344 19.706C23.8025 19.7169 23.6746 19.757 23.5602 19.8236C23.4458 19.8901 23.3477 19.9814 23.273 20.0907C23.1984 20.2 23.1491 20.3246 23.1287 20.4554C23.1084 20.5862 23.1176 20.7199 23.1555 20.8467L23.5999 26.5712L29.1555 25.0956C29.3756 25.0312 29.5622 24.8843 29.6765 24.6855C29.7908 24.4868 29.8239 24.2515 29.7688 24.0289Z" fill="#6D201B"/>
<path d="M3.83101 15.8512C3.94915 15.9271 4.08278 15.9757 4.22212 15.9934C4.4541 16.0238 4.68873 15.9616 4.8751 15.8201C5.06148 15.6787 5.18457 15.4694 5.21768 15.2378C5.58496 12.526 6.96315 10.0529 9.07625 8.314C11.1894 6.57506 13.8814 5.69857 16.6132 5.86005L14.6221 7.22005C14.4812 7.32618 14.3751 7.47183 14.3173 7.63846C14.2594 7.80509 14.2524 7.98516 14.2972 8.15576C14.342 8.32636 14.4366 8.47978 14.5688 8.59649C14.7011 8.7132 14.8651 8.78793 15.0399 8.81116C15.2402 8.82947 15.4407 8.77933 15.6088 8.66894L20.3466 5.41561L16.2932 1.3445C16.2211 1.23397 16.1253 1.1409 16.0127 1.07203C15.9001 1.00316 15.7736 0.960224 15.6424 0.946339C15.5111 0.932455 15.3784 0.947969 15.2539 0.991757C15.1294 1.03554 15.0162 1.10651 14.9226 1.19949C14.8289 1.29248 14.7571 1.40515 14.7125 1.52933C14.6678 1.65351 14.6513 1.78608 14.6642 1.91743C14.6772 2.04877 14.7192 2.17558 14.7872 2.28866C14.8553 2.40173 14.9477 2.49824 15.0577 2.57116L16.5688 4.08227C13.414 3.93142 10.3172 4.96882 7.88992 6.98966C5.46261 9.0105 3.88113 11.8679 3.45768 14.9978C3.43489 15.1607 3.45771 15.3267 3.52362 15.4773C3.58953 15.628 3.69594 15.7574 3.83101 15.8512Z" fill="#6D201B"/>
<path d="M19.3154 27.2734C17.9274 27.7168 16.4632 27.8711 15.0132 27.7267C13.2473 27.5536 11.5501 26.9534 10.068 25.9777C8.58596 25.0021 7.36363 23.6804 6.50655 22.1267L8.71988 22.9534C8.92391 22.9888 9.13388 22.9518 9.31357 22.8489C9.49326 22.746 9.63137 22.5836 9.70408 22.3897C9.77679 22.1958 9.77952 21.9826 9.71181 21.7869C9.6441 21.5913 9.5102 21.4253 9.33321 21.3179L5.25321 19.8067L3.94655 19.3356L2.95988 24.9801C2.92568 25.2056 2.9795 25.4357 3.11021 25.6227C3.24093 25.8096 3.43852 25.9392 3.6621 25.9845H3.81321C4.02242 25.9883 4.22627 25.9182 4.38886 25.7865C4.55146 25.6548 4.66238 25.47 4.7021 25.2645L5.07544 23.1312C6.08079 24.8923 7.49292 26.3874 9.1939 27.4915C10.8949 28.5955 12.8353 29.2766 14.8532 29.4779C16.5403 29.645 18.2437 29.4635 19.8577 28.9445C20.0632 28.8594 20.2293 28.7004 20.3233 28.4988C20.4172 28.2972 20.4322 28.0677 20.3652 27.8556C20.2982 27.6435 20.1542 27.4642 19.9615 27.3531C19.7688 27.2421 19.5414 27.2073 19.3243 27.2556L19.3154 27.2734Z" fill="#6D201B"/>
<path d="M19.5554 12.2245H12.4443C12.2086 12.2245 11.9825 12.3181 11.8158 12.4848C11.6491 12.6515 11.5554 12.8776 11.5554 13.1134V20.2245C11.5554 20.4602 11.6491 20.6863 11.8158 20.853C11.9825 21.0197 12.2086 21.1134 12.4443 21.1134H19.5554C19.7912 21.1134 20.0173 21.0197 20.184 20.853C20.3507 20.6863 20.4443 20.4602 20.4443 20.2245V13.1134C20.4443 12.8776 20.3507 12.6515 20.184 12.4848C20.0173 12.3181 19.7912 12.2245 19.5554 12.2245ZM18.6665 19.3356H13.3332V14.0023H18.6665V19.3356Z" fill="#6D201B"/>
</g>
<defs>
<clipPath id="clip0_2115_666">
<rect width="32" height="32" fill="white" transform="translate(-0.00012207 0.668945)"/>
</clipPath>
</defs>
</svg>
