<svg width="88" height="96" viewBox="0 0 88 96" fill="none" xmlns="http://www.w3.org/2000/svg">
<circle cx="25.9757" cy="26.4531" r="25.4836" fill="#6D201B" fill-opacity="0.1"/>
<path d="M47.6505 21.8414C48.1221 21.1652 48.728 20.5935 49.4305 20.1619C50.1329 19.7303 50.9167 19.448 51.733 19.3328C52.5494 19.2176 53.3807 19.2718 54.1751 19.4922C54.9696 19.7125 55.7101 20.0942 56.3505 20.6134L69.4305 31.2334C70.5992 32.1818 71.3688 33.5348 71.5866 35.024C71.8044 36.5133 71.4546 38.03 70.6065 39.2734H65.7265L67.2865 37.0374C67.5768 36.6232 67.6995 36.1144 67.6297 35.6134C67.56 35.1124 67.3029 34.6565 66.9105 34.3374L60.1745 28.8734L52.9905 39.2734H48.1225L57.0585 26.3454L53.8265 23.7214C53.6131 23.5483 53.3663 23.421 53.1016 23.3474C52.8368 23.2739 52.5597 23.2557 52.2876 23.2939C52.0155 23.3322 51.7542 23.4262 51.52 23.5699C51.2858 23.7137 51.0838 23.9041 50.9265 24.1294L40.3625 39.2694H35.4825L47.6505 21.8414ZM61.6425 63.2734C61.112 63.2734 60.6033 63.4841 60.2282 63.8592C59.8532 64.2343 59.6425 64.743 59.6425 65.2734C59.6425 65.8038 59.8532 66.3126 60.2282 66.6876C60.6033 67.0627 61.112 67.2734 61.6425 67.2734H65.6425C66.1729 67.2734 66.6816 67.0627 67.0567 66.6876C67.4317 66.3126 67.6425 65.8038 67.6425 65.2734C67.6425 64.743 67.4317 64.2343 67.0567 63.8592C66.6816 63.4841 66.1729 63.2734 65.6425 63.2734H61.6425ZM25.6425 35.2734H34.3185L31.5185 39.2734H25.6425C25.112 39.2734 24.6033 39.4841 24.2282 39.8592C23.8532 40.2343 23.6425 40.743 23.6425 41.2734C23.6425 41.8038 23.8532 42.3126 24.2282 42.6876C24.6033 43.0627 25.112 43.2734 25.6425 43.2734H67.6425C69.7642 43.2734 71.799 44.1163 73.2993 45.6166C74.7996 47.1168 75.6425 49.1517 75.6425 51.2734V75.2734C75.6425 77.3951 74.7996 79.43 73.2993 80.9303C71.799 82.4306 69.7642 83.2734 67.6425 83.2734H29.6425C26.9903 83.2734 24.4468 82.2198 22.5714 80.3445C20.696 78.4691 19.6425 75.9256 19.6425 73.2734V41.2734C19.6425 39.6821 20.2746 38.156 21.3998 37.0308C22.525 35.9056 24.0512 35.2734 25.6425 35.2734ZM23.6425 73.2734C23.6425 74.8647 24.2746 76.3908 25.3998 77.5161C26.525 78.6413 28.0512 79.2734 29.6425 79.2734H67.6425C68.7033 79.2734 69.7207 78.852 70.4709 78.1018C71.221 77.3517 71.6425 76.3343 71.6425 75.2734V51.2734C71.6425 50.2125 71.221 49.1951 70.4709 48.445C69.7207 47.6948 68.7033 47.2734 67.6425 47.2734H25.6425C24.9425 47.2734 24.2665 47.1534 23.6425 46.9334V73.2734Z" fill="#6D201B"/>
</svg>
