<svg width="88" height="96" viewBox="0 0 88 96" fill="none" xmlns="http://www.w3.org/2000/svg">
<circle cx="25.7517" cy="26.4531" r="25.4836" fill="#6D201B" fill-opacity="0.1"/>
<path d="M42.6426 51.1068C42.6426 52.0917 42.4486 53.067 42.0717 53.9769C41.6948 54.8868 41.1423 55.7136 40.4459 56.4101C39.7494 57.1065 38.9226 57.659 38.0127 58.0359C37.1028 58.4128 36.1275 58.6068 35.1426 58.6068C34.1577 58.6068 33.1824 58.4128 32.2725 58.0359C31.3625 57.659 30.5357 57.1065 29.8393 56.4101C29.1428 55.7136 28.5904 54.8868 28.2135 53.9769C27.8366 53.067 27.6426 52.0917 27.6426 51.1068C27.6426 49.1176 28.4328 47.21 29.8393 45.8035C31.2458 44.3969 33.1535 43.6068 35.1426 43.6068C37.1317 43.6068 39.0394 44.3969 40.4459 45.8035C41.8524 47.21 42.6426 49.1176 42.6426 51.1068ZM38.4759 51.1068C38.4759 50.2227 38.1247 49.3749 37.4996 48.7497C36.8745 48.1246 36.0266 47.7734 35.1426 47.7734C34.2585 47.7734 33.4107 48.1246 32.7856 48.7497C32.1604 49.3749 31.8092 50.2227 31.8092 51.1068C31.8092 51.9908 32.1604 52.8387 32.7856 53.4638C33.4107 54.0889 34.2585 54.4401 35.1426 54.4401C36.0266 54.4401 36.8745 54.0889 37.4996 53.4638C38.1247 52.8387 38.4759 51.9908 38.4759 51.1068ZM35.1426 76.9401C37.1317 76.9401 39.0394 76.1499 40.4459 74.7434C41.8524 73.3369 42.6426 71.4292 42.6426 69.4401C42.6426 67.451 41.8524 65.5433 40.4459 64.1368C39.0394 62.7303 37.1317 61.9401 35.1426 61.9401C33.1535 61.9401 31.2458 62.7303 29.8393 64.1368C28.4328 65.5433 27.6426 67.451 27.6426 69.4401C27.6426 71.4292 28.4328 73.3369 29.8393 74.7434C31.2458 76.1499 33.1535 76.9401 35.1426 76.9401ZM35.1426 72.7734C34.2585 72.7734 33.4107 72.4222 32.7856 71.7971C32.1604 71.172 31.8092 70.3242 31.8092 69.4401C31.8092 68.556 32.1604 67.7082 32.7856 67.0831C33.4107 66.458 34.2585 66.1068 35.1426 66.1068C36.0266 66.1068 36.8745 66.458 37.4996 67.0831C38.1247 67.7082 38.4759 68.556 38.4759 69.4401C38.4759 70.3242 38.1247 71.172 37.4996 71.7971C36.8745 72.4222 36.0266 72.7734 35.1426 72.7734ZM29.7259 35.2734C29.1734 35.2734 28.6435 35.4929 28.2528 35.8836C27.8621 36.2743 27.6426 36.8042 27.6426 37.3568C27.6426 37.9093 27.8621 38.4392 28.2528 38.8299C28.6435 39.2206 29.1734 39.4401 29.7259 39.4401H65.5592C66.1118 39.4401 66.6417 39.2206 67.0324 38.8299C67.4231 38.4392 67.6426 37.9093 67.6426 37.3568C67.6426 36.8042 67.4231 36.2743 67.0324 35.8836C66.6417 35.4929 66.1118 35.2734 65.5592 35.2734H29.7259ZM45.9759 51.5234C45.9759 50.3734 46.9092 49.4401 48.0592 49.4401H65.5592C66.1118 49.4401 66.6417 49.6596 67.0324 50.0503C67.4231 50.441 67.6426 50.9709 67.6426 51.5234C67.6426 52.076 67.4231 52.6059 67.0324 52.9966C66.6417 53.3873 66.1118 53.6068 65.5592 53.6068H48.0592C46.9092 53.6068 45.9759 52.6734 45.9759 51.5234ZM48.0592 66.9401C47.5067 66.9401 46.9768 67.1596 46.5861 67.5503C46.1954 67.941 45.9759 68.4709 45.9759 69.0234C45.9759 69.576 46.1954 70.1059 46.5861 70.4966C46.9768 70.8873 47.5067 71.1068 48.0592 71.1068H65.5592C66.1118 71.1068 66.6417 70.8873 67.0324 70.4966C67.4231 70.1059 67.6426 69.576 67.6426 69.0234C67.6426 68.4709 67.4231 67.941 67.0324 67.5503C66.6417 67.1596 66.1118 66.9401 65.5592 66.9401H48.0592ZM28.0592 25.2734C25.2966 25.2734 22.6471 26.3709 20.6935 28.3244C18.74 30.2779 17.6426 32.9274 17.6426 35.6901V74.8568C17.6426 77.6194 18.74 80.269 20.6935 82.2225C22.6471 84.176 25.2966 85.2734 28.0592 85.2734H67.2259C69.9886 85.2734 72.6381 84.176 74.5916 82.2225C76.5451 80.269 77.6426 77.6194 77.6426 74.8568V35.6901C77.6426 32.9274 76.5451 30.2779 74.5916 28.3244C72.6381 26.3709 69.9886 25.2734 67.2259 25.2734H28.0592ZM21.8092 35.6901C21.8092 34.0325 22.4677 32.4428 23.6398 31.2707C24.8119 30.0986 26.4016 29.4401 28.0592 29.4401H67.2259C68.8835 29.4401 70.4732 30.0986 71.6453 31.2707C72.8174 32.4428 73.4759 34.0325 73.4759 35.6901V74.8568C73.4759 76.5144 72.8174 78.1041 71.6453 79.2762C70.4732 80.4483 68.8835 81.1068 67.2259 81.1068H28.0592C26.4016 81.1068 24.8119 80.4483 23.6398 79.2762C22.4677 78.1041 21.8092 76.5144 21.8092 74.8568V35.6901Z" fill="#6D201B"/>
</svg>
