<svg width="88" height="96" viewBox="0 0 88 96" fill="none" xmlns="http://www.w3.org/2000/svg">
<circle cx="26.2141" cy="26.4531" r="25.4836" fill="#6D201B" fill-opacity="0.1"/>
<path d="M25.6586 33.4957H61.2142V37.0512H25.6586V33.4957ZM25.6586 51.2734H43.6275V54.829H25.6586V51.2734ZM59.8319 42.3846H25.6586V45.9401H56.2786L59.8319 42.3846ZM36.3097 79.8779C36.9074 80.5633 37.6661 81.0895 38.5175 81.4091C39.3689 81.7287 40.2864 81.8318 41.1875 81.709H58.5275C58.9401 81.709 59.3357 81.5451 59.6274 81.2534C59.9192 80.9617 60.083 80.566 60.083 80.1534C60.083 79.7409 59.9192 79.3452 59.6274 79.0535C59.3357 78.7618 58.9401 78.5979 58.5275 78.5979H41.1875C39.163 78.5623 39.5231 76.8046 39.8075 76.2601C40.1783 75.6211 40.4673 74.938 40.6675 74.2268C40.8004 73.6546 40.7377 73.0543 40.4896 72.5218C40.2415 71.9894 39.8222 71.5553 39.2986 71.289C38.4574 70.91 37.5151 70.8171 36.6161 71.0246C35.7171 71.2321 34.9109 71.7286 34.3208 72.4379C33.5564 73.2268 32.4942 74.4334 31.4764 75.6068C32.1053 73.1423 32.9208 69.9801 33.7208 66.8957C33.9501 66.1929 33.9044 65.4293 33.5931 64.7588C33.2818 64.0883 32.7279 63.5607 32.0431 63.2823C31.2846 63.0221 30.4557 63.0593 29.7237 63.3864C28.9916 63.7134 28.4108 64.306 28.0986 65.0446C27.1386 66.8912 19.5386 79.6268 19.463 79.7557C19.3583 79.9311 19.2891 80.1254 19.2594 80.3275C19.2297 80.5296 19.2402 80.7356 19.2901 80.9337C19.34 81.1318 19.4285 81.3181 19.5505 81.482C19.6724 81.646 19.8254 81.7842 20.0008 81.889C20.355 82.1006 20.7788 82.1628 21.1789 82.0619C21.5789 81.9611 21.9226 81.7054 22.1342 81.3512C22.4186 80.8734 28.4853 70.7112 30.3986 67.3179C28.9586 72.8734 27.3719 79.0557 27.2786 79.6112C27.1735 80.0197 27.2051 80.4513 27.3684 80.8401C27.5317 81.229 27.8178 81.5536 28.183 81.7646C28.5898 81.9663 29.0522 82.0269 29.4972 81.9367C29.9422 81.8466 30.3446 81.6109 30.6408 81.2668C30.9208 81.0135 31.4453 80.4112 32.7675 78.8757C33.9994 77.4268 35.2612 76.0035 36.5519 74.6068C37.0364 74.0957 37.3297 74.3223 37.0453 74.8246C36.4889 75.5277 36.128 76.3653 35.9993 77.2526C35.8705 78.14 35.9783 79.0456 36.3119 79.8779H36.3097Z" fill="#6D201B"/>
<path d="M70.1031 63.4846V86.3846H16.7698V24.1623H70.1031V35.2579L73.0586 32.3023C73.5136 31.8536 74.0124 31.4516 74.5475 31.1023V21.9401C74.5475 21.3507 74.3134 20.7855 73.8967 20.3688C73.4799 19.952 72.9147 19.7179 72.3253 19.7179H14.5475C13.9582 19.7179 13.3929 19.952 12.9762 20.3688C12.5594 20.7855 12.3253 21.3507 12.3253 21.9401V88.6068C12.3253 89.1962 12.5594 89.7614 12.9762 90.1781C13.3929 90.5949 13.9582 90.829 14.5475 90.829H72.3253C72.9147 90.829 73.4799 90.5949 73.8967 90.1781C74.3134 89.7614 74.5475 89.1962 74.5475 88.6068V62.889C73.1845 63.6113 71.6082 63.8225 70.1031 63.4846Z" fill="#6D201B"/>
<path d="M83.7209 41.6312L82.5587 40.469C83.1527 39.684 83.4534 38.716 83.4088 37.7326C83.3641 36.7492 82.9769 35.8124 82.3142 35.0845C81.4541 34.3264 80.3292 33.9388 79.1846 34.0062C78.04 34.0737 76.9684 34.5906 76.2031 35.4445L48.3698 63.2734L46.5098 70.2556C46.4804 70.347 46.4768 70.4447 46.4995 70.538C46.5221 70.6313 46.5702 70.7164 46.6383 70.7841C46.7064 70.8517 46.7919 70.8992 46.8853 70.9212C46.9787 70.9433 47.0764 70.939 47.1676 70.909L54.1254 69.0267L80.1076 43.0445L81.2054 44.1445C81.282 44.2211 81.3428 44.312 81.3843 44.4121C81.4258 44.5122 81.4472 44.6195 81.4472 44.7279C81.4472 44.8362 81.4258 44.9435 81.3843 45.0436C81.3428 45.1437 81.282 45.2346 81.2054 45.3112L70.2787 56.2379C69.9454 56.5714 69.7583 57.0238 69.7585 57.4953C69.7587 57.9669 69.9462 58.419 70.2798 58.7523C70.6134 59.0856 71.0657 59.2727 71.5373 59.2725C72.0088 59.2723 72.461 59.0848 72.7943 58.7512L83.7209 47.8245C84.5422 47.0028 85.0035 45.8885 85.0035 44.7267C85.0035 43.565 84.5422 42.4507 83.7209 41.629V41.6312Z" fill="#6D201B"/>
</svg>
