<svg width="26" height="24" viewBox="0 0 26 24" fill="none" xmlns="http://www.w3.org/2000/svg">
<path d="M6.53109 0.668945L1.22009 7.04395L0.720093 7.63795L1.22009 8.29395L12.2201 22.2939L13.0011 23.2939L13.7821 22.2939L24.7821 8.29395L25.2821 7.63795L24.7821 7.04395L19.4701 0.668945H6.53109ZM7.46909 2.66895H11.1251L8.43709 6.66895H4.12509L7.46909 2.66895ZM14.8751 2.66895H18.5311L21.8751 6.66895H17.5621L14.8751 2.66895ZM13.0001 3.51295L15.1251 6.66895H10.8751L13.0001 3.51295ZM4.03109 8.66895H8.25009L10.6251 17.0749L4.03109 8.66895ZM10.3131 8.66895H15.6561L13.0001 17.9819L10.3131 8.66895ZM17.7501 8.66895H21.9691L15.3751 17.0439L17.7501 8.66895Z" fill="#6D201B"/>
</svg>
