<svg width="89" height="92" viewBox="0 0 89 92" fill="none" xmlns="http://www.w3.org/2000/svg">
<ellipse cx="26.4016" cy="25.1087" rx="25.4836" ry="24.5003" fill="#6D201B" fill-opacity="0.1"/>
<path d="M43.0681 16.6234V21.6884C35.6678 22.9621 29.0138 26.9639 24.4198 32.9038C19.8258 38.8438 17.6256 46.2901 18.2535 53.773C18.8815 61.2558 22.2919 68.2314 27.8115 73.3226C33.3312 78.4139 40.559 81.2508 48.0681 81.2734C55.158 81.2725 62.0186 78.7615 67.4339 74.1854C72.8492 69.6093 76.4695 63.2638 77.6531 56.2734H82.7131C81.4241 65.0112 76.8801 72.939 69.992 78.4675C63.1039 83.996 54.3806 86.7167 45.5709 86.0842C36.7612 85.4518 28.5161 81.5128 22.4884 75.0571C16.4606 68.6013 13.0957 60.1057 13.0681 51.2734C13.068 42.8561 16.1005 34.7206 21.6101 28.3571C27.1197 21.9935 34.7375 17.8279 43.0681 16.6234Z" fill="#6D201B"/>
<path d="M53.0681 18.8735V46.2735H80.4681C79.8769 39.2044 76.8003 32.5734 71.7842 27.5573C66.7682 22.5413 60.1372 19.4647 53.0681 18.8735ZM48.0681 16.2735V13.8635C53.0729 13.5052 58.0962 14.2271 62.7975 15.9804C67.4989 17.7337 71.7682 20.4774 75.3162 24.0254C78.8642 27.5734 81.6078 31.8427 83.3611 36.544C85.1145 41.2453 85.8364 46.2687 85.4781 51.2735H48.0681V16.2735Z" fill="#6D201B"/>
</svg>
