<svg width="38" height="38" viewBox="0 0 38 38" fill="none" xmlns="http://www.w3.org/2000/svg">
<path d="M0.85041 34.6613C0.731888 35.0063 0.712999 35.3777 0.795908 35.733C0.878816 36.0882 1.06017 36.4129 1.31916 36.6698L1.32596 36.6765C1.50618 36.8581 1.72052 37.0023 1.95666 37.1007C2.19279 37.1992 2.44606 37.2499 2.70189 37.2501C2.91716 37.25 3.13094 37.2145 3.33471 37.1451C10.6288 34.6606 17.2574 30.5396 22.7128 25.0977L35.7172 12.093C36.3644 11.4491 36.8782 10.6839 37.2291 9.84121C37.5801 8.9985 37.7614 8.09482 37.7626 7.18194C37.7638 6.26905 37.5848 5.36491 37.236 4.52129C36.8872 3.67767 36.3754 2.91116 35.7299 2.26565C35.0844 1.62014 34.3179 1.10833 33.4743 0.759533C32.6306 0.410733 31.7265 0.231798 30.8136 0.232977C29.9007 0.234156 28.9971 0.415426 28.1543 0.766405C27.3116 1.11738 26.5464 1.63117 25.9026 2.27834L25.1578 3.02319L23.5335 1.39889C22.795 0.660522 21.7936 0.245716 20.7493 0.245716C19.7051 0.245716 18.7036 0.660522 17.9652 1.39889L7.49111 11.873L9.25877 13.6407L19.7329 3.16662C20.0025 2.8971 20.3681 2.74569 20.7493 2.74569C21.1305 2.74569 21.4961 2.8971 21.7656 3.16662L23.39 4.79092L12.8978 15.2831C7.45594 20.7386 3.33491 27.3672 0.85041 34.6613ZM27.6707 4.04608C28.083 3.63378 28.5725 3.30673 29.1112 3.0836C29.6499 2.86047 30.2272 2.74563 30.8103 2.74563C31.3934 2.74563 31.9707 2.86047 32.5094 3.0836C33.0481 3.30673 33.5376 3.63378 33.9499 4.04608C34.3622 4.45837 34.6892 4.94784 34.9123 5.48653C35.1355 6.02521 35.2503 6.60258 35.2503 7.18565C35.2503 7.76872 35.1355 8.34608 34.9123 8.88477C34.6892 9.42346 34.3622 9.91292 33.9499 10.3252L26.9582 17.3169L20.6792 11.0377L27.6707 4.04608ZM18.911 12.8055L25.1901 19.0845L20.9446 23.33C16.0293 28.2326 10.109 32.0107 3.59205 34.4035C5.98488 27.8866 9.76292 21.9662 14.6656 17.0509L18.911 12.8055Z" fill="#6D201B"/>
</svg>
