<svg width="40" height="41" viewBox="0 0 40 41" fill="none" xmlns="http://www.w3.org/2000/svg">
<path d="M6 9.99573C6 9.20008 6.31607 8.43702 6.87868 7.87441C7.44129 7.3118 8.20435 6.99573 9 6.99573H31C31.7956 6.99573 32.5587 7.3118 33.1213 7.87441C33.6839 8.43702 34 9.20008 34 9.99573V23.9957C34 24.7914 33.6839 25.5544 33.1213 26.117C32.5587 26.6797 31.7956 26.9957 31 26.9957H20V24.9957H31C31.2652 24.9957 31.5196 24.8904 31.7071 24.7028C31.8946 24.5153 32 24.2609 32 23.9957V9.99573C32 9.73051 31.8946 9.47616 31.7071 9.28862C31.5196 9.10108 31.2652 8.99573 31 8.99573H9C8.73478 8.99573 8.48043 9.10108 8.29289 9.28862C8.10536 9.47616 8 9.73051 8 9.99573V12.9957H6V9.99573ZM20 30.9957H35C35.2652 30.9957 35.5196 30.8904 35.7071 30.7028C35.8946 30.5153 36 30.2609 36 29.9957C36 29.7305 35.8946 29.4762 35.7071 29.2886C35.5196 29.1011 35.2652 28.9957 35 28.9957H20V30.9957ZM10 30.9957C9.73478 30.9957 9.48043 31.1011 9.29289 31.2886C9.10536 31.4762 9 31.7305 9 31.9957C9 32.2609 9.10536 32.5153 9.29289 32.7028C9.48043 32.8904 9.73478 32.9957 10 32.9957H12C12.2652 32.9957 12.5196 32.8904 12.7071 32.7028C12.8946 32.5153 13 32.2609 13 31.9957C13 31.7305 12.8946 31.4762 12.7071 31.2886C12.5196 31.1011 12.2652 30.9957 12 30.9957H10ZM4 17.9957C4 17.2001 4.31607 16.437 4.87868 15.8744C5.44129 15.3118 6.20435 14.9957 7 14.9957H15C15.7956 14.9957 16.5587 15.3118 17.1213 15.8744C17.6839 16.437 18 17.2001 18 17.9957V33.9957C18 34.7914 17.6839 35.5544 17.1213 36.117C16.5587 36.6797 15.7956 36.9957 15 36.9957H7C6.20435 36.9957 5.44129 36.6797 4.87868 36.117C4.31607 35.5544 4 34.7914 4 33.9957V17.9957ZM7 16.9957C6.73478 16.9957 6.48043 17.1011 6.29289 17.2886C6.10536 17.4762 6 17.7305 6 17.9957V33.9957C6 34.2609 6.10536 34.5153 6.29289 34.7028C6.48043 34.8904 6.73478 34.9957 7 34.9957H15C15.2652 34.9957 15.5196 34.8904 15.7071 34.7028C15.8946 34.5153 16 34.2609 16 33.9957V17.9957C16 17.7305 15.8946 17.4762 15.7071 17.2886C15.5196 17.1011 15.2652 16.9957 15 16.9957H7Z" fill="#6D201B"/>
</svg>
