<svg width="34" height="32" viewBox="0 0 34 32" fill="none" xmlns="http://www.w3.org/2000/svg">
<path d="M32.5556 12.6666H31.4445V5.99989C31.4445 5.70521 31.3274 5.42259 31.119 5.21422C30.9107 5.00584 30.6281 4.88878 30.3334 4.88878H3.6667C3.4036 4.89307 3.14752 4.80385 2.94404 4.637C2.74057 4.47016 2.60292 4.23651 2.55559 3.97767V3.57767C2.60292 3.31883 2.74057 3.08518 2.94404 2.91834C3.14752 2.75149 3.4036 2.66227 3.6667 2.66656H29.8667C30.1614 2.66656 30.444 2.54949 30.6524 2.34112C30.8607 2.13275 30.9778 1.85013 30.9778 1.55545C30.9778 1.26076 30.8607 0.978147 30.6524 0.769773C30.444 0.561399 30.1614 0.444336 29.8667 0.444336H3.6667C2.78264 0.444336 1.9348 0.795526 1.30967 1.42065C0.684553 2.04577 0.333364 2.89361 0.333364 3.77767C0.325565 3.91089 0.325565 4.04445 0.333364 4.17767V27.0332C0.337725 27.6315 0.459882 28.223 0.692859 28.774C0.925835 29.3251 1.26507 29.8248 1.69119 30.2448C2.11731 30.6647 2.62197 30.9966 3.17636 31.2215C3.73075 31.4464 4.324 31.5598 4.92225 31.5554H30.3334C30.6281 31.5554 30.9107 31.4384 31.119 31.23C31.3274 31.0216 31.4445 30.739 31.4445 30.4443V23.7777H32.5556C32.8503 23.7777 33.1329 23.6606 33.3413 23.4522C33.5496 23.2439 33.6667 22.9612 33.6667 22.6666V13.7777C33.6667 13.483 33.5496 13.2004 33.3413 12.992C33.1329 12.7836 32.8503 12.6666 32.5556 12.6666ZM29.2223 29.3332H4.92225C4.30425 29.3392 3.7089 29.1009 3.26569 28.6702C2.82248 28.2395 2.56727 27.6511 2.55559 27.0332V6.97767C2.91625 7.08219 3.29154 7.12722 3.6667 7.111H29.2223V12.6666H21.4445C19.9711 12.6666 18.558 13.2519 17.5161 14.2937C16.4742 15.3356 15.8889 16.7487 15.8889 18.2221C15.8889 19.6955 16.4742 21.1086 17.5161 22.1505C18.558 23.1924 19.9711 23.7777 21.4445 23.7777H29.2223V29.3332ZM31.4445 21.5554H21.4445C20.5604 21.5554 19.7126 21.2043 19.0875 20.5791C18.4623 19.954 18.1111 19.1062 18.1111 18.2221C18.1111 17.3381 18.4623 16.4902 19.0875 15.8651C19.7126 15.24 20.5604 14.8888 21.4445 14.8888H31.4445V21.5554Z" fill="#6D201B"/>
</svg>
