<svg width="40" height="41" viewBox="0 0 40 41" fill="none" xmlns="http://www.w3.org/2000/svg">
<g clip-path="url(#clip0_2115_488)">
<path d="M19.9999 19.8845C21.5382 19.8845 23.042 19.4283 24.321 18.5737C25.6001 17.7191 26.597 16.5043 27.1857 15.0831C27.7744 13.6619 27.9284 12.0981 27.6283 10.5893C27.3282 9.08061 26.5874 7.69474 25.4997 6.607C24.4119 5.51925 23.0261 4.77849 21.5173 4.47839C20.0086 4.17828 18.4447 4.3323 17.0235 4.92099C15.6023 5.50967 14.3876 6.50656 13.533 7.78561C12.6783 9.06466 12.2222 10.5684 12.2222 12.1067C12.2222 14.1695 13.0416 16.1478 14.5002 17.6064C15.9588 19.0651 17.9372 19.8845 19.9999 19.8845ZM19.9999 6.55116C21.0987 6.55116 22.1728 6.87699 23.0864 7.48744C24.0001 8.09789 24.7121 8.96555 25.1326 9.9807C25.5531 10.9958 25.6631 12.1129 25.4488 13.1905C25.2344 14.2682 24.7053 15.2581 23.9283 16.0351C23.1514 16.812 22.1615 17.3412 21.0838 17.5555C20.0061 17.7699 18.8891 17.6599 17.8739 17.2394C16.8588 16.8189 15.9911 16.1068 15.3807 15.1932C14.7702 14.2796 14.4444 13.2055 14.4444 12.1067C14.4444 10.6333 15.0297 9.22021 16.0716 8.17834C17.1134 7.13648 18.5265 6.55116 19.9999 6.55116Z" fill="#6D201B"/>
<path d="M33.8555 28.0734C32.0737 26.1901 29.9264 24.6899 27.545 23.6647C25.1637 22.6395 22.5982 22.1107 20.0055 22.1107C17.4129 22.1107 14.8474 22.6395 12.4661 23.6647C10.0847 24.6899 7.93743 26.1901 6.15554 28.0734C5.76923 28.486 5.55467 29.0304 5.55554 29.5956V35.44C5.55554 36.0294 5.78967 36.5947 6.20642 37.0114C6.62317 37.4281 7.1884 37.6623 7.77777 37.6623H32.2222C32.8116 37.6623 33.3768 37.4281 33.7936 37.0114C34.2103 36.5947 34.4444 36.0294 34.4444 35.44V29.5956C34.4483 29.0319 34.2378 28.4877 33.8555 28.0734ZM32.2222 35.44H7.77777V29.5845C9.35246 27.9264 11.2481 26.606 13.3493 25.7037C15.4505 24.8014 17.7133 24.3361 20 24.3361C22.2867 24.3361 24.5495 24.8014 26.6507 25.7037C28.7519 26.606 30.6475 27.9264 32.2222 29.5845V35.44Z" fill="#6D201B"/>
</g>
<defs>
<clipPath id="clip0_2115_488">
<rect width="40" height="40" fill="white" transform="translate(0 0.995605)"/>
</clipPath>
</defs>
</svg>
