<svg width="27" height="38" viewBox="0 0 27 38" fill="none" xmlns="http://www.w3.org/2000/svg">
<path d="M11.825 36.9156C8.15732 32.2638 0 20.9896 0 14.6568C0 6.97351 6.03965 0.745117 13.4901 0.745117C20.9378 0.745117 26.9803 6.97351 26.9803 14.6568C26.9803 20.9896 18.7597 32.2638 15.1553 36.9156C14.2911 38.0242 12.6892 38.0242 11.825 36.9156ZM13.4901 19.2941C15.9704 19.2941 17.9869 17.2146 17.9869 14.6568C17.9869 12.0991 15.9704 10.0196 13.4901 10.0196C11.0099 10.0196 8.99343 12.0991 8.99343 14.6568C8.99343 17.2146 11.0099 19.2941 13.4901 19.2941Z" fill="#6D201B"/>
</svg>
