<svg width="32" height="26" viewBox="0 0 32 26" fill="none" xmlns="http://www.w3.org/2000/svg">
<path d="M31.811 7.95015V20.8336C31.8111 22.1472 31.3085 23.411 30.4064 24.3658C29.5043 25.3206 28.271 25.894 26.9595 25.9684L26.6684 25.9763H5.30669C3.99313 25.9763 2.72932 25.4738 1.77453 24.5717C0.819735 23.6695 0.246343 22.4362 0.171974 21.1248L0.164062 20.8336V7.95015L15.4369 15.9505C15.6068 16.0395 15.7957 16.086 15.9875 16.086C16.1793 16.086 16.3683 16.0395 16.5382 15.9505L31.811 7.95015ZM5.30669 0.658691H26.6684C27.9431 0.658538 29.1724 1.13181 30.118 1.9867C31.0635 2.8416 31.6578 4.0172 31.7857 5.28548L15.9875 13.5612L0.18938 5.28548C0.312049 4.06756 0.865122 2.93334 1.74918 2.0867C2.63324 1.24006 3.7903 0.736522 5.01238 0.666603L5.30669 0.658691H26.6684H5.30669Z" fill="#6D201B"/>
</svg>
