<svg width="23" height="30" viewBox="0 0 23 30" fill="none" xmlns="http://www.w3.org/2000/svg">
<path d="M3.67459 1.08504L6.06254 0.365083C6.85064 0.12785 7.69813 0.185409 8.44692 0.527025C9.19571 0.868642 9.79466 1.47098 10.132 2.22169L11.8062 5.94477C12.0968 6.59066 12.1777 7.31134 12.0378 8.00562C11.8978 8.6999 11.5439 9.33291 11.0258 9.81578L8.47761 12.1902C8.13612 12.5144 8.39501 13.778 9.64261 15.9404C10.8914 18.1039 11.8567 18.9595 12.3018 18.8264L15.6402 17.8056C16.3169 17.5986 17.0414 17.6086 17.7122 17.8341C18.3829 18.0596 18.9663 18.4893 19.3806 19.0631L21.7599 22.3608C22.2404 23.0267 22.463 23.8445 22.3861 24.6621C22.3092 25.4797 21.9382 26.2416 21.3419 26.8063L19.5026 28.5483C18.9088 29.1106 18.1765 29.5053 17.3804 29.6922C16.5842 29.8791 15.7528 29.8515 14.9708 29.6122C11.1171 28.4324 7.54807 24.9312 4.2158 19.158C0.876123 13.3761 -0.385038 8.49914 0.493953 4.51471C0.671236 3.71185 1.05943 2.97079 1.61851 2.36794C2.1776 1.76508 2.88735 1.32223 3.67459 1.08504Z" fill="#6D201B"/>
</svg>
