<svg width="113" height="113" viewBox="0 0 113 113" fill="none" xmlns="http://www.w3.org/2000/svg">
<path d="M56.5 0.0625C71.4682 0.0625 85.8232 6.00858 96.4073 16.5927C106.991 27.1767 112.938 41.5318 112.938 56.5C112.938 71.4682 106.991 85.8232 96.4073 96.4073C85.8232 106.991 71.4682 112.938 56.5 112.938C41.5318 112.938 27.1767 106.991 16.5927 96.4073C6.00858 85.8232 0.0625 71.4682 0.0625 56.5C0.0625 41.5318 6.00858 27.1767 16.5927 16.5927C27.1767 6.00858 41.5318 0.0625 56.5 0.0625ZM49.4695 67.6343L36.9323 55.0891C36.4829 54.6396 35.9493 54.2831 35.362 54.0398C34.7748 53.7966 34.1454 53.6714 33.5098 53.6714C32.8742 53.6714 32.2448 53.7966 31.6575 54.0398C31.0703 54.2831 30.5367 54.6396 30.0872 55.0891C29.1795 55.9968 28.6696 57.2279 28.6696 58.5116C28.6696 59.7953 29.1795 61.0264 30.0872 61.9341L46.051 77.8979C46.4992 78.3496 47.0324 78.7081 47.6198 78.9528C48.2072 79.1974 48.8372 79.3234 49.4735 79.3234C50.1099 79.3234 50.7399 79.1974 51.3273 78.9528C51.9147 78.7081 52.4479 78.3496 52.8961 77.8979L85.9523 44.8336C86.4078 44.386 86.7701 43.8526 87.0184 43.2643C87.2667 42.676 87.3961 42.0443 87.3991 41.4058C87.402 40.7672 87.2785 40.1344 87.0357 39.5438C86.7929 38.9531 86.4355 38.4165 85.9843 37.9647C85.533 37.5128 84.9967 37.1549 84.4064 36.9113C83.8161 36.6678 83.1834 36.5436 82.5448 36.5458C81.9062 36.548 81.2744 36.6766 80.6858 36.9243C80.0972 37.1719 79.5634 37.5336 79.1153 37.9885L49.4695 67.6343Z" fill="#737373"/>
</svg>
