<svg width="60" height="60" viewBox="0 0 60 60" fill="none" xmlns="http://www.w3.org/2000/svg">
<path d="M30 0C13.41 0 0 13.41 0 30C0 46.59 13.41 60 30 60C46.59 60 60 46.59 60 30C60 13.41 46.59 0 30 0ZM42.9 42.9C42.6225 43.1781 42.2928 43.3988 41.9299 43.5493C41.567 43.6998 41.1779 43.7773 40.785 43.7773C40.3921 43.7773 40.003 43.6998 39.6401 43.5493C39.2772 43.3988 38.9475 43.1781 38.67 42.9L30 34.23L21.33 42.9C20.7691 43.4609 20.0083 43.7761 19.215 43.7761C18.4217 43.7761 17.6609 43.4609 17.1 42.9C16.5391 42.3391 16.2239 41.5783 16.2239 40.785C16.2239 40.3922 16.3013 40.0033 16.4516 39.6404C16.6019 39.2775 16.8223 38.9477 17.1 38.67L25.77 30L17.1 21.33C16.5391 20.7691 16.2239 20.0083 16.2239 19.215C16.2239 18.4217 16.5391 17.6609 17.1 17.1C17.6609 16.5391 18.4217 16.2239 19.215 16.2239C20.0083 16.2239 20.7691 16.5391 21.33 17.1L30 25.77L38.67 17.1C38.9477 16.8223 39.2775 16.6019 39.6404 16.4516C40.0033 16.3013 40.3922 16.2239 40.785 16.2239C41.1778 16.2239 41.5667 16.3013 41.9296 16.4516C42.2925 16.6019 42.6223 16.8223 42.9 17.1C43.1777 17.3777 43.3981 17.7075 43.5484 18.0704C43.6987 18.4333 43.7761 18.8222 43.7761 19.215C43.7761 19.6078 43.6987 19.9967 43.5484 20.3596C43.3981 20.7225 43.1777 21.0523 42.9 21.33L34.23 30L42.9 38.67C44.04 39.81 44.04 41.73 42.9 42.9Z" fill="#BD0B20"/>
</svg>
