<svg width="42" height="34" viewBox="0 0 42 34" fill="none" xmlns="http://www.w3.org/2000/svg">
<path d="M16.8332 0.333496C19.0433 0.333496 21.1629 1.21147 22.7257 2.77427C24.2885 4.33708 25.1665 6.45669 25.1665 8.66683C25.1665 10.877 24.2885 12.9966 22.7257 14.5594C21.1629 16.1222 19.0433 17.0002 16.8332 17.0002C14.623 17.0002 12.5034 16.1222 10.9406 14.5594C9.37781 12.9966 8.49984 10.877 8.49984 8.66683C8.49984 6.45669 9.37781 4.33708 10.9406 2.77427C12.5034 1.21147 14.623 0.333496 16.8332 0.333496ZM16.8332 21.1668C26.0415 21.1668 33.4998 24.896 33.4998 29.5002V33.6668H0.166504V29.5002C0.166504 24.896 7.62484 21.1668 16.8332 21.1668ZM37.6665 17.0002V6.5835H41.8332V19.0835H37.6665V17.0002ZM37.6665 27.4168V23.2502H41.8332V27.4168H37.6665Z" fill="#6D201B"/>
</svg>
