<svg width="140" height="185" viewBox="0 0 140 185" fill="none" xmlns="http://www.w3.org/2000/svg">
<path opacity="0.6" d="M21.729 162.721C21.729 163.439 21.5162 164.14 21.1175 164.737C20.7189 165.333 20.1522 165.798 19.4893 166.073C18.8263 166.348 18.0968 166.419 17.393 166.279C16.6892 166.139 16.0427 165.794 15.5353 165.286C15.0279 164.779 14.6824 164.133 14.5424 163.429C14.4024 162.725 14.4742 161.995 14.7488 161.333C15.0234 160.67 15.4885 160.103 16.0851 159.704C16.6818 159.306 17.3832 159.093 18.1008 159.093C19.0631 159.093 19.9859 159.475 20.6663 160.155C21.3467 160.836 21.729 161.759 21.729 162.721Z" fill="#FFC727"/>
<path opacity="0.6" d="M26.1447 155.787C26.1457 156.138 26.0426 156.481 25.8484 156.773C25.6543 157.065 25.3778 157.293 25.054 157.427C24.7303 157.562 24.3739 157.598 24.0299 157.529C23.686 157.461 23.37 157.292 23.1221 157.045C22.8742 156.797 22.7054 156.481 22.6373 156.137C22.5691 155.793 22.6046 155.436 22.7393 155.113C22.8739 154.789 23.1017 154.512 23.3936 154.318C23.6856 154.124 24.0286 154.021 24.3792 154.022C24.8474 154.022 25.2965 154.208 25.6276 154.539C25.9587 154.87 26.1447 155.319 26.1447 155.787Z" fill="#FFC727"/>
<path opacity="0.6" d="M103.81 160.966C103.81 161.316 103.706 161.658 103.511 161.95C103.317 162.241 103.04 162.468 102.717 162.602C102.393 162.736 102.037 162.771 101.694 162.702C101.35 162.634 101.035 162.466 100.787 162.218C100.54 161.97 100.371 161.655 100.303 161.311C100.234 160.968 100.269 160.612 100.403 160.288C100.537 159.965 100.764 159.688 101.055 159.494C101.347 159.299 101.689 159.195 102.039 159.195C102.509 159.195 102.959 159.382 103.291 159.714C103.623 160.046 103.81 160.496 103.81 160.966Z" fill="#FFC727"/>
<path opacity="0.6" d="M139.236 177.116C139.237 177.466 139.134 177.809 138.941 178.101C138.747 178.393 138.47 178.621 138.147 178.756C137.824 178.89 137.467 178.926 137.124 178.858C136.78 178.791 136.464 178.622 136.216 178.375C135.968 178.128 135.798 177.812 135.73 177.468C135.661 177.125 135.696 176.769 135.83 176.445C135.963 176.121 136.19 175.844 136.482 175.649C136.773 175.455 137.115 175.351 137.466 175.351C137.935 175.351 138.384 175.536 138.716 175.867C139.048 176.198 139.235 176.647 139.236 177.116Z" fill="#FFC727"/>
<path opacity="0.6" d="M136.524 182.289C136.523 182.848 136.301 183.384 135.905 183.779C135.51 184.174 134.975 184.396 134.416 184.398H2.87102C2.31186 184.398 1.7756 184.176 1.38021 183.78C0.984825 183.385 0.762695 182.849 0.762695 182.289C0.762695 181.73 0.984825 181.194 1.38021 180.799C1.7756 180.403 2.31186 180.181 2.87102 180.181C3.04317 180.181 3.21484 180.199 3.38275 180.237C3.38345 179.411 3.63021 178.604 4.09158 177.918C4.55294 177.233 5.20799 176.7 5.97324 176.388C6.73849 176.076 7.57925 175.999 8.38835 176.167C9.19745 176.335 9.93824 176.74 10.5163 177.331H10.5572C10.5572 177.075 10.5163 176.819 10.5163 176.553C10.5173 175.222 10.8563 173.913 11.5016 172.749C12.147 171.584 13.0774 170.603 14.2056 169.897C15.3339 169.19 16.6231 168.782 17.9523 168.71C19.2815 168.638 20.6072 168.905 21.805 169.486C21.8942 168.216 22.4117 167.013 23.2728 166.075C24.1339 165.136 25.2878 164.518 26.5459 164.32C27.8041 164.122 29.0921 164.357 30.1996 164.985C31.3071 165.614 32.1686 166.6 32.6434 167.782C33.3511 166.657 34.3327 165.731 35.4962 165.089C36.6598 164.447 37.9671 164.111 39.2959 164.113C39.8008 164.113 40.3045 164.161 40.8004 164.256C40.693 163.651 40.6399 163.038 40.6418 162.424C40.6407 160.389 41.2242 158.397 42.3228 156.684C43.4215 154.971 44.989 153.609 46.8389 152.761C48.6889 151.913 50.7435 151.615 52.7583 151.901C54.7731 152.187 56.6634 153.045 58.2043 154.375C58.3806 154.03 58.6488 153.74 58.9793 153.538C59.3098 153.335 59.6898 153.228 60.0772 153.228C60.3548 153.23 60.6295 153.285 60.8858 153.392L62.8611 100.643H74.4466L76.4219 153.392C76.9121 153.183 77.4637 153.168 77.9646 153.35C78.4655 153.533 78.8781 153.899 79.1187 154.375C80.6596 153.045 82.5499 152.187 84.5647 151.901C86.5795 151.615 88.6341 151.913 90.4841 152.761C92.334 153.609 93.9015 154.971 95.0002 156.684C96.0988 158.397 96.6823 160.389 96.6812 162.424C96.6831 163.038 96.6301 163.651 96.5226 164.256C97.0168 164.162 97.5188 164.114 98.022 164.113C99.3507 164.111 100.658 164.447 101.822 165.089C102.985 165.731 103.967 166.657 104.674 167.782C105.168 166.632 106.032 165.68 107.127 165.075C108.223 164.471 109.489 164.249 110.725 164.444C111.962 164.64 113.097 165.241 113.953 166.154C114.809 167.068 115.336 168.24 115.451 169.486C116.649 168.901 117.975 168.631 119.306 168.699C120.637 168.768 121.929 169.174 123.059 169.879C124.19 170.584 125.123 171.565 125.771 172.73C126.418 173.895 126.759 175.205 126.761 176.538C126.761 176.799 126.761 177.049 126.72 177.315H126.761C127.339 176.725 128.079 176.32 128.889 176.152C129.698 175.984 130.538 176.061 131.304 176.373C132.069 176.685 132.724 177.217 133.185 177.903C133.647 178.588 133.893 179.396 133.894 180.222C134.062 180.184 134.234 180.165 134.406 180.166C134.685 180.164 134.961 180.218 135.219 180.325C135.477 180.431 135.712 180.588 135.909 180.785C136.106 180.983 136.262 181.217 136.367 181.476C136.473 181.734 136.527 182.01 136.524 182.289V182.289Z" fill="#FFC727"/>
<path d="M103.175 164.926L100.442 165.428L99.8282 168.314L99.2192 165.428L96.4814 164.921L99.2038 164.256L99.8282 161.534L100.452 164.256L103.175 164.926Z" fill="#FCFCFC"/>
<path d="M76.5704 141.801L73.8326 142.308L73.2237 145.189L72.6147 142.308L69.877 141.801L72.5994 141.136L73.2237 138.409L73.848 141.136L76.5704 141.801Z" fill="#FCFCFC"/>
<path d="M36.8189 170.418L35.2888 170.699L34.9459 172.311L34.6082 170.699L33.0781 170.412L34.598 170.044L34.9459 168.519L35.2939 170.044L36.8189 170.418Z" fill="#FCFCFC"/>
<path d="M119.08 175.223L117.55 175.504L117.212 177.116L116.869 175.504L115.339 175.223L116.859 174.849L117.212 173.329L117.56 174.849L119.08 175.223Z" fill="#FCFCFC"/>
<path d="M15.7769 180.872L14.2519 181.154L13.9091 182.766L13.5662 181.154L12.0361 180.872L13.5611 180.499L13.9091 178.974L14.257 180.499L15.7769 180.872Z" fill="#FCFCFC"/>
<path d="M82.2818 179.531L80.7517 179.813L80.4088 181.425L80.0711 179.813L78.541 179.531L80.0609 179.158L80.4088 177.633L80.7568 179.158L82.2818 179.531Z" fill="#FCFCFC"/>
<path d="M71.0894 137.416L69.5593 137.698L69.2164 139.31L68.8736 137.698L67.3486 137.416L68.8685 137.043L69.2164 135.523L69.5644 137.043L71.0894 137.416Z" fill="#FCFCFC"/>
<path d="M122.697 178.708C122.588 178.719 122.487 178.771 122.414 178.853C122.34 178.934 122.3 179.04 122.3 179.15C122.3 179.26 122.34 179.366 122.414 179.448C122.487 179.529 122.588 179.581 122.697 179.593C122.807 179.581 122.908 179.529 122.981 179.448C123.054 179.366 123.095 179.26 123.095 179.15C123.095 179.04 123.054 178.934 122.981 178.853C122.908 178.771 122.807 178.719 122.697 178.708V178.708Z" fill="#FCFCFC"/>
<path d="M65.169 131.828C65.0598 131.84 64.9588 131.892 64.8855 131.973C64.8121 132.055 64.7715 132.161 64.7715 132.271C64.7715 132.381 64.8121 132.487 64.8855 132.568C64.9588 132.65 65.0598 132.702 65.169 132.713C65.2782 132.702 65.3792 132.65 65.4526 132.568C65.526 132.487 65.5666 132.381 65.5666 132.271C65.5666 132.161 65.526 132.055 65.4526 131.973C65.3792 131.892 65.2782 131.84 65.169 131.828V131.828Z" fill="#FCFCFC"/>
<path d="M27.3624 180.872C27.2532 180.884 27.1522 180.936 27.0788 181.017C27.0054 181.099 26.9648 181.205 26.9648 181.315C26.9648 181.425 27.0054 181.53 27.0788 181.612C27.1522 181.694 27.2532 181.746 27.3624 181.757C27.4716 181.746 27.5726 181.694 27.646 181.612C27.7193 181.53 27.7599 181.425 27.7599 181.315C27.7599 181.205 27.7193 181.099 27.646 181.017C27.5726 180.936 27.4716 180.884 27.3624 180.872V180.872Z" fill="#FCFCFC"/>
<path d="M55.4511 174.777C55.333 174.777 55.2198 174.824 55.1363 174.908C55.0528 174.991 55.0059 175.104 55.0059 175.223C55.0059 175.341 55.0528 175.454 55.1363 175.537C55.2198 175.621 55.333 175.668 55.4511 175.668C55.5691 175.668 55.6824 175.621 55.7659 175.537C55.8494 175.454 55.8963 175.341 55.8963 175.223C55.8963 175.104 55.8494 174.991 55.7659 174.908C55.6824 174.824 55.5691 174.777 55.4511 174.777V174.777Z" fill="#FCFCFC"/>
<path d="M111.593 170.74C111.511 170.74 111.431 170.773 111.373 170.831C111.314 170.89 111.281 170.969 111.281 171.052C111.281 171.135 111.314 171.214 111.373 171.273C111.431 171.331 111.511 171.364 111.593 171.364C111.676 171.364 111.756 171.331 111.814 171.273C111.873 171.214 111.906 171.135 111.906 171.052C111.906 170.969 111.873 170.89 111.814 170.831C111.756 170.773 111.676 170.74 111.593 170.74Z" fill="#FCFCFC"/>
<path d="M72.8552 166.037C72.7786 166.047 72.7083 166.084 72.6573 166.142C72.6063 166.2 72.5781 166.275 72.5781 166.352C72.5781 166.429 72.6063 166.504 72.6573 166.561C72.7083 166.619 72.7786 166.657 72.8552 166.667C72.9318 166.657 73.0021 166.619 73.0531 166.561C73.1041 166.504 73.1323 166.429 73.1323 166.352C73.1323 166.275 73.1041 166.2 73.0531 166.142C73.0021 166.084 72.9318 166.047 72.8552 166.037V166.037Z" fill="#FCFCFC"/>
<path d="M44.4948 159.912C44.412 159.912 44.3326 159.945 44.274 160.003C44.2155 160.062 44.1826 160.141 44.1826 160.224C44.1826 160.307 44.2155 160.386 44.274 160.445C44.3326 160.503 44.412 160.536 44.4948 160.536C44.5776 160.536 44.657 160.503 44.7155 160.445C44.774 160.386 44.8069 160.307 44.8069 160.224C44.8069 160.141 44.774 160.062 44.7155 160.003C44.657 159.945 44.5776 159.912 44.4948 159.912Z" fill="#FCFCFC"/>
<path d="M93.0116 161.191C92.7863 161.191 92.5702 161.28 92.4109 161.44C92.2516 161.599 92.1621 161.815 92.1621 162.04C92.1621 162.266 92.2516 162.482 92.4109 162.641C92.5702 162.8 92.7863 162.89 93.0116 162.89C93.2369 162.89 93.4529 162.8 93.6122 162.641C93.7716 162.482 93.8611 162.266 93.8611 162.04C93.8611 161.815 93.7716 161.599 93.6122 161.44C93.4529 161.28 93.2369 161.191 93.0116 161.191V161.191Z" fill="#FCFCFC"/>
<path d="M48.5126 157.036C48.2873 157.036 48.0712 157.125 47.9119 157.284C47.7526 157.444 47.6631 157.66 47.6631 157.885C47.6631 158.11 47.7526 158.326 47.9119 158.486C48.0712 158.645 48.2873 158.735 48.5126 158.735C48.7379 158.735 48.9539 158.645 49.1132 158.486C49.2725 158.326 49.362 158.11 49.362 157.885C49.362 157.66 49.2725 157.444 49.1132 157.284C48.9539 157.125 48.7379 157.036 48.5126 157.036V157.036Z" fill="#FCFCFC"/>
<path d="M48.9266 58.9473C48.5121 58.9473 33.063 66.0808 32.1368 83.6536C31.2975 99.8037 42.4635 115.145 43.9065 114.127C45.672 112.884 42.6682 102.823 46.1019 91.309C47.3198 87.2152 52.6418 83.6024 52.6418 83.6024L48.9266 58.9473Z" fill="#FFC727"/>
<path opacity="0.1" d="M52.6462 83.6027C51.0906 84.7125 49.6703 86.0005 48.4142 87.4407C46.1166 82.3234 41.8283 72.7284 39.0547 66.516C43.5835 61.281 48.6906 58.9731 48.926 58.9731L52.6462 83.6027Z" fill="black"/>
<path d="M88.2686 58.978C88.6831 58.978 104.132 66.1422 105.023 83.7048C105.841 99.8601 94.6498 115.181 93.2067 114.163C91.4464 112.919 94.4605 102.859 91.0472 91.3398C89.8345 87.246 84.5176 83.628 84.5176 83.628L88.2686 58.978Z" fill="#FFC727"/>
<path opacity="0.1" d="M98.1859 66.5979C95.3867 72.8564 91.0933 82.4615 88.8212 87.5276C87.5464 86.0618 86.1017 84.7528 84.5176 83.6283L88.2686 58.9731C88.504 58.9731 93.6571 61.3118 98.1859 66.5979Z" fill="black"/>
<path d="M80.2853 99.3688H56.9658C56.9658 99.3688 45.9789 79.7235 47.2787 56.3016C47.9337 44.6086 50.9888 32.8337 54.6681 23.0955C59.7291 9.64215 65.9876 0.0984004 68.6997 0.103518C71.4119 0.108635 77.655 9.65751 82.7006 23.0955C86.3544 32.8184 89.3941 44.6189 90.0337 56.3119C91.3028 79.7337 80.2853 99.3688 80.2853 99.3688Z" fill="#EBEBEB"/>
<path d="M82.6186 53.2773C82.6176 55.9384 81.8275 58.5393 80.3481 60.7513C78.8688 62.9632 76.7667 64.6868 74.3077 65.704C71.8488 66.7211 69.1434 66.9862 66.5338 66.4657C63.9241 65.9452 61.5275 64.6625 59.6469 62.7797C57.7663 60.897 56.4863 58.4989 55.9688 55.8887C55.4513 53.2784 55.7195 50.5734 56.7394 48.1156C57.7594 45.6578 59.4853 43.5576 61.699 42.0808C63.9126 40.604 66.5145 39.8168 69.1755 39.8189C72.7427 39.8216 76.1628 41.2409 78.6837 43.7647C81.2046 46.2885 82.62 49.7102 82.6186 53.2773V53.2773Z" fill="#C7C7C7"/>
<path d="M82.1431 51.9058C82.142 54.5668 81.3519 57.1678 79.8726 59.3797C78.3932 61.5917 76.2911 63.3152 73.8322 64.3324C71.3732 65.3495 68.6678 65.6146 66.0582 65.0941C63.4485 64.5736 61.0519 63.2909 59.1713 61.4082C57.2907 59.5254 56.0107 57.1273 55.4932 54.5171C54.9757 51.9069 55.2439 49.2018 56.2638 46.744C57.2838 44.2862 59.0098 42.1861 61.2234 40.7092C63.437 39.2324 66.0389 38.4452 68.6999 38.4473C72.2671 38.45 75.6872 39.8693 78.2081 42.3931C80.729 44.9169 82.1444 48.3386 82.1431 51.9058V51.9058Z" fill="#FFC727"/>
<path d="M78.018 51.9011C78.018 53.7462 77.4709 55.5498 76.4458 57.0839C75.4207 58.618 73.9638 59.8137 72.2592 60.5198C70.5545 61.2259 68.6788 61.4106 66.8692 61.0507C65.0596 60.6907 63.3974 59.8022 62.0927 58.4976C60.788 57.1929 59.8996 55.5307 59.5396 53.7211C59.1797 51.9114 59.3644 50.0357 60.0705 48.3311C60.7765 46.6265 61.9722 45.1695 63.5064 44.1445C65.0405 43.1194 66.8441 42.5723 68.6892 42.5723C69.9143 42.5723 71.1273 42.8136 72.2592 43.2824C73.391 43.7512 74.4194 44.4384 75.2857 45.3046C76.1519 46.1709 76.8391 47.1993 77.3079 48.3311C77.7767 49.4629 78.018 50.676 78.018 51.9011Z" fill="white"/>
<path d="M78.0233 51.8959C78.0244 53.0531 77.8092 54.2003 77.3888 55.2785L72.0719 60.5953C70.9956 61.0151 69.8498 61.2286 68.6945 61.2248C67.8503 61.2264 67.0098 61.111 66.1973 60.8819L77.6805 49.4038C77.9071 50.2152 78.0224 51.0535 78.0233 51.8959V51.8959Z" fill="#EBEBEB"/>
<path d="M70.0606 42.6747L59.4627 53.2675C59.3947 52.8152 59.3605 52.3585 59.3604 51.9012C59.3618 50.5613 59.6521 49.2375 60.2114 48.0199C60.7706 46.8023 61.5858 45.7196 62.6012 44.8454C63.6167 43.9713 64.8087 43.3263 66.0959 42.9543C67.3831 42.5824 68.7354 42.4922 70.0606 42.6901V42.6747Z" fill="#EBEBEB"/>
<path d="M76.857 47.3824L64.1764 60.058C63.9295 59.9248 63.6903 59.7779 63.46 59.6179L76.417 46.666C76.5602 46.8963 76.7137 47.1368 76.857 47.3824Z" fill="#EBEBEB"/>
<path d="M82.7007 23.0955H54.6631C59.7241 9.64215 65.9825 0.0984004 68.6947 0.103518C71.4069 0.108635 77.6551 9.65751 82.7007 23.0955Z" fill="#FFC727"/>
<path d="M59.4943 20.1838C59.4903 20.3377 59.441 20.487 59.3525 20.6131C59.2641 20.7391 59.1405 20.8362 58.9971 20.8924C58.8537 20.9485 58.697 20.9611 58.5465 20.9286C58.396 20.8962 58.2584 20.82 58.1509 20.7098C58.0435 20.5995 57.9709 20.46 57.9423 20.3087C57.9137 20.1574 57.9304 20.001 57.9902 19.8592C58.05 19.7173 58.1503 19.5962 58.2786 19.511C58.4069 19.4259 58.5574 19.3804 58.7114 19.3804C58.816 19.3803 58.9195 19.4012 59.0158 19.4419C59.1122 19.4825 59.1994 19.542 59.2724 19.6169C59.3454 19.6918 59.4026 19.7805 59.4407 19.8779C59.4788 19.9752 59.4971 20.0793 59.4943 20.1838V20.1838Z" fill="white"/>
<path d="M64.4832 20.1838C64.4802 20.3392 64.4313 20.4902 64.3426 20.6179C64.254 20.7456 64.1296 20.8442 63.985 20.9013C63.8405 20.9584 63.6823 20.9716 63.5303 20.939C63.3783 20.9065 63.2394 20.8298 63.1309 20.7184C63.0224 20.6071 62.9493 20.4662 62.9207 20.3135C62.8921 20.1607 62.9093 20.0029 62.9701 19.8599C63.031 19.7169 63.1328 19.595 63.2627 19.5097C63.3926 19.4244 63.5448 19.3794 63.7003 19.3804C63.8046 19.381 63.9078 19.4024 64.0038 19.4433C64.0999 19.4841 64.1868 19.5437 64.2597 19.6184C64.3325 19.6932 64.3898 19.7816 64.4282 19.8787C64.4665 19.9757 64.4852 20.0795 64.4832 20.1838V20.1838Z" fill="white"/>
<path d="M69.4726 20.1892C69.4736 20.3455 69.4281 20.4986 69.3419 20.629C69.2557 20.7593 69.1327 20.8611 68.9885 20.9214C68.8443 20.9817 68.6854 20.9977 68.5321 20.9675C68.3787 20.9372 68.2378 20.8621 68.1273 20.7516C68.0168 20.641 67.9416 20.5001 67.9114 20.3468C67.8811 20.1935 67.8972 20.0346 67.9574 19.8904C68.0177 19.7462 68.1195 19.6231 68.2499 19.5369C68.3803 19.4507 68.5333 19.4053 68.6896 19.4063C68.8973 19.4063 69.0964 19.4888 69.2433 19.6356C69.3901 19.7824 69.4726 19.9816 69.4726 20.1892V20.1892Z" fill="white"/>
<path d="M74.4619 20.1943C74.4619 20.3502 74.4157 20.5026 74.3291 20.6322C74.2425 20.7617 74.1194 20.8628 73.9754 20.9224C73.8314 20.982 73.6729 20.9977 73.5201 20.9672C73.3672 20.9368 73.2268 20.8618 73.1166 20.7516C73.0064 20.6414 72.9313 20.5009 72.9009 20.3481C72.8705 20.1952 72.8861 20.0367 72.9457 19.8927C73.0054 19.7487 73.1064 19.6257 73.236 19.5391C73.3656 19.4525 73.5179 19.4063 73.6738 19.4063C73.7775 19.4056 73.8803 19.4255 73.9762 19.4649C74.0721 19.5042 74.1593 19.5623 74.2326 19.6356C74.3059 19.7089 74.3639 19.796 74.4033 19.8919C74.4426 19.9879 74.4626 20.0906 74.4619 20.1943V20.1943Z" fill="white"/>
<path d="M79.4462 20.1941C79.4472 20.3504 79.4018 20.5035 79.3156 20.6338C79.2294 20.7642 79.1063 20.866 78.9621 20.9263C78.8179 20.9866 78.659 21.0026 78.5057 20.9724C78.3523 20.9421 78.2114 20.867 78.1009 20.7564C77.9904 20.6459 77.9153 20.505 77.885 20.3517C77.8548 20.1983 77.8708 20.0395 77.9311 19.8953C77.9914 19.7511 78.0932 19.628 78.2235 19.5418C78.3539 19.4556 78.507 19.4101 78.6633 19.4111C78.8705 19.4125 79.0689 19.4954 79.2154 19.642C79.362 19.7885 79.4449 19.9869 79.4462 20.1941V20.1941Z" fill="white"/>
<path d="M59.4628 95.7661C59.4628 95.9222 59.4165 96.0748 59.3297 96.2045C59.2428 96.3342 59.1195 96.4352 58.9752 96.4947C58.8309 96.5542 58.6721 96.5695 58.5191 96.5386C58.3661 96.5078 58.2257 96.4322 58.1157 96.3215C58.0057 96.2108 57.9311 96.0699 57.9012 95.9167C57.8714 95.7635 57.8878 95.6049 57.9482 95.461C58.0086 95.3171 58.1104 95.1943 58.2407 95.1084C58.371 95.0224 58.5238 94.977 58.6799 94.978C58.888 94.9794 59.0871 95.063 59.2338 95.2107C59.3805 95.3583 59.4628 95.558 59.4628 95.7661V95.7661Z" fill="#C7C7C7"/>
<path d="M64.4531 95.7663C64.4541 95.9224 64.4087 96.0753 64.3227 96.2055C64.2368 96.3358 64.114 96.4376 63.9701 96.4981C63.8262 96.5585 63.6676 96.5748 63.5144 96.545C63.3612 96.5152 63.2203 96.4405 63.1096 96.3305C62.9989 96.2205 62.9233 96.0801 62.8925 95.9271C62.8617 95.7741 62.8769 95.6154 62.9364 95.4711C62.9959 95.3268 63.0969 95.2034 63.2266 95.1166C63.3563 95.0297 63.5089 94.9834 63.665 94.9834C63.8731 94.9834 64.0728 95.0657 64.2204 95.2124C64.3681 95.3591 64.4517 95.5582 64.4531 95.7663Z" fill="#C7C7C7"/>
<path d="M69.4414 95.7715C69.4414 95.9273 69.3952 96.0797 69.3086 96.2093C69.222 96.3389 69.0989 96.4399 68.9549 96.4995C68.8109 96.5592 68.6524 96.5748 68.4996 96.5444C68.3467 96.514 68.2063 96.4389 68.0961 96.3287C67.9858 96.2185 67.9108 96.0781 67.8804 95.9252C67.85 95.7723 67.8656 95.6139 67.9252 95.4699C67.9849 95.3259 68.0859 95.2028 68.2155 95.1162C68.3451 95.0296 68.4974 94.9834 68.6533 94.9834C68.7568 94.9834 68.8593 95.0038 68.9549 95.0434C69.0505 95.083 69.1374 95.141 69.2105 95.2142C69.2837 95.2874 69.3418 95.3743 69.3814 95.4699C69.421 95.5655 69.4414 95.668 69.4414 95.7715V95.7715Z" fill="#C7C7C7"/>
<path d="M74.4257 95.7768C74.4257 95.9329 74.3794 96.0855 74.2926 96.2152C74.2057 96.3449 74.0824 96.4459 73.9381 96.5054C73.7938 96.5649 73.635 96.5802 73.482 96.5494C73.329 96.5186 73.1886 96.443 73.0786 96.3323C72.9686 96.2215 72.894 96.0806 72.8641 95.9274C72.8343 95.7742 72.8506 95.6156 72.9111 95.4717C72.9715 95.3278 73.0733 95.2051 73.2036 95.1191C73.3338 95.0331 73.4867 94.9878 73.6428 94.9888C73.8509 94.9901 74.05 95.0738 74.1967 95.2214C74.3434 95.369 74.4257 95.5687 74.4257 95.7768V95.7768Z" fill="#C7C7C7"/>
<path d="M79.4159 95.7766C79.417 95.9329 79.3715 96.086 79.2853 96.2164C79.1991 96.3467 79.076 96.4485 78.9318 96.5088C78.7876 96.5691 78.6288 96.5851 78.4754 96.5549C78.3221 96.5246 78.1812 96.4495 78.0707 96.339C77.9601 96.2284 77.885 96.0876 77.8547 95.9342C77.8245 95.7809 77.8405 95.622 77.9008 95.4778C77.9611 95.3336 78.0629 95.2106 78.1933 95.1243C78.3236 95.0381 78.4767 94.9927 78.633 94.9937C78.8402 94.995 79.0386 95.0779 79.1851 95.2245C79.3317 95.371 79.4146 95.5694 79.4159 95.7766V95.7766Z" fill="#C7C7C7"/>
<path d="M78.1363 106.38L59.1665 106.364L58.2812 99.3535L79.0319 99.3689L78.1363 106.38Z" fill="#FFC727"/>
<path opacity="0.1" d="M79.0316 99.3689L78.5916 102.782L58.6188 102.035L58.2861 99.3535L79.0316 99.3689Z" fill="black"/>
</svg>
